<?xml version="1.0" encoding="UTF-8"?>
<svg xmlns="http://www.w3.org/2000/svg" xmlns:xlink="http://www.w3.org/1999/xlink" viewBox="0 0 595.296 841.896" width="100%" height="100%" preserveAspectRatio="xMidYMid meet">
	<rect fill="white" width="595.29602" height="841.896"/>
	<text font-size="16" font-weight="600" font-family="Arial" x="220.26044, 233.58856, 243.362, 252.26044, 256.70575, 270.93231, 279.83075, 289.60419, 294.93231, 304.70575, 309.15106, 318.9245, 327.82294, 332.26825, 343.82294, 352.72137, 357.16669, 366.06512, " y="71.148376, ">
			Movimento de Caixa
	</text>
	<text font-size="10" font-family="Arial" x="259.24774, 266.46942, 272.03094, 274.80927, 280.37079, 283.14911, 285.92743, 291.48895, 297.05048, 299.8288, 305.39032, 310.95184, 313.73016, 319.29169, 324.85321, 330.41473, " y="102.58073, ">
			Data: 23/05/2026
	</text>
	<path fill="none" stroke="black" stroke-width="0.50400001" stroke-miterlimit="4" d="M56.664 119.016L538.56 119.016"/>
	<rect fill="#F4F2EC" x="56.664001" y="130.32001" width="481.896" height="19.871994"/>
	<text fill="#C2410C" font-size="10" font-weight="600" font-family="Arial" x="62.352001, 68.460403, 74.568802, 78.460403, 87.352005, 92.913528, 95.691849, 101.80025, 107.36177, 110.14009, 116.24849, 121.81001, 127.91841, 133.47993, 142.37154, 147.93306, 154.04146, 157.37154, 163.47993, 166.81001, 169.58833, 176.81001, 182.37154, 186.26314, 189.59322, 195.15474, 201.26314, 204.04146, 211.26314, 215.15474, 220.71626, 226.82466, 229.60298, 232.93306, " y="142.25273, ">
			Forma de pagamento: Cartão Crédito
	</text>
	<text font-size="9" font-family="Consolas" x="62.352001, 67.300247, 72.248489, 77.196732, 82.144974, " y="164.1593, ">
			13:15
	</text>
	<text font-size="10" font-family="Arial" x="124.704, 131.92569, 138.03409, 145.25577, 148.58585, 154.14737, 156.92569, 162.48721, 168.04874, 173.61026, 179.17178, 184.73331, " y="164.93274, ">
			NFC-e 001238
	</text>
	<text fill="gray" font-size="10" font-family="Arial" x="300.45599, 307.67767, 313.2392, 316.56927, 319.3476, 324.90912, 330.47064, 333.24896, 340.47064, 343.80072, 349.36224, 354.92377, 357.14545, 359.92377, " y="164.93274, ">
			Cartão Crédito
	</text>
	<text font-size="10" font-family="Arial" x="486.72455, 493.94623, 499.50775, 502.28607, 507.8476, 513.40912, 518.97064, 521.74896, 527.31049, " y="164.93274, ">
			R$ 234,00
	</text>
	<text font-size="9" font-family="Consolas" x="62.352001, 67.300247, 72.248489, 77.196732, 82.144974, " y="181.15129, ">
			18:25
	</text>
	<text font-size="10" font-family="Arial" x="124.704, 131.92569, 138.03409, 145.25577, 148.58585, 154.14737, 156.92569, 162.48721, 168.04874, 173.61026, 179.17178, 184.73331, " y="181.92473, ">
			NFC-e 001243
	</text>
	<text fill="gray" font-size="10" font-family="Arial" x="300.45599, 307.67767, 313.2392, 316.56927, 319.3476, 324.90912, 330.47064, 333.24896, 340.47064, 343.80072, 349.36224, 354.92377, 357.14545, 359.92377, " y="181.92473, ">
			Cartão Crédito
	</text>
	<text font-size="10" font-family="Arial" x="486.72455, 493.94623, 499.50775, 502.28607, 507.8476, 513.40912, 518.97064, 521.74896, 527.31049, " y="181.92473, ">
			R$ 312,70
	</text>
	<path fill="none" stroke="black" stroke-width="0.21600001" stroke-miterlimit="4" d="M56.664 189.864L538.56 189.864"/>
	<text font-size="10" font-weight="600" font-family="Arial" x="363.52094, 370.19086, 376.29926, 382.40765, 385.73773, 391.84613, 395.17621, 400.73773, 403.51605, 406.84613, 409.62445, 416.84613, 422.40765, 425.18597, 430.7475, 436.30902, 441.87054, 444.64886, 450.21039, 455.77191, 458.55023, 461.88031, 464.65863, 470.22015, 472.99847, 481.89008, 487.99847, 493.56, 496.33832, 505.22992, 510.79144, 516.89984, 520.22992, 526.33832, 529.6684, 535.22992, " y="204.60474, ">
			Subtotal: R$ 546,70 · 2 movimento(s)
	</text>
	<rect fill="#F4F2EC" x="56.664001" y="215.35201" width="481.896" height="19.871994"/>
	<text fill="#C2410C" font-size="10" font-weight="600" font-family="Arial" x="62.352001, 68.460403, 74.568802, 78.460403, 87.352005, 92.913528, 95.691849, 101.80025, 107.36177, 110.14009, 116.24849, 121.81001, 127.91841, 133.47993, 142.37154, 147.93306, 154.04146, 157.37154, 163.47993, 166.81001, 169.58833, 176.81001, 182.37154, 186.26314, 189.59322, 195.15474, 201.26314, 204.04146, 211.26314, 216.82466, 222.93306, 225.71138, 229.04146, " y="227.28473, ">
			Forma de pagamento: Cartão Débito
	</text>
	<text font-size="9" font-family="Consolas" x="62.352001, 67.300247, 72.248489, 77.196732, 82.144974, " y="249.1913, ">
			10:03
	</text>
	<text font-size="10" font-family="Arial" x="124.704, 131.92569, 138.03409, 145.25577, 148.58585, 154.14737, 156.92569, 162.48721, 168.04874, 173.61026, 179.17178, 184.73331, " y="249.96474, ">
			NFC-e 001235
	</text>
	<text fill="gray" font-size="10" font-family="Arial" x="300.45599, 307.67767, 313.2392, 316.56927, 319.3476, 324.90912, 330.47064, 333.24896, 340.47064, 346.03217, 351.59369, 353.81537, 356.59369, " y="249.96474, ">
			Cartão Débito
	</text>
	<text font-size="10" font-family="Arial" x="486.72455, 493.94623, 499.50775, 502.28607, 507.8476, 513.40912, 518.97064, 521.74896, 527.31049, " y="249.96474, ">
			R$ 128,50
	</text>
	<text font-size="9" font-family="Consolas" x="62.352001, 67.300247, 72.248489, 77.196732, 82.144974, " y="266.18329, ">
			15:30
	</text>
	<text font-size="10" font-family="Arial" x="124.704, 131.92569, 138.03409, 145.25577, 148.58585, 154.14737, 156.92569, 162.48721, 168.04874, 173.61026, 179.17178, 184.73331, " y="266.95673, ">
			NFC-e 001240
	</text>
	<text fill="gray" font-size="10" font-family="Arial" x="300.45599, 307.67767, 313.2392, 316.56927, 319.3476, 324.90912, 330.47064, 333.24896, 340.47064, 346.03217, 351.59369, 353.81537, 356.59369, " y="266.95673, ">
			Cartão Débito
	</text>
	<text font-size="10" font-family="Arial" x="492.28607, 499.50775, 505.06927, 507.8476, 513.40912, 518.97064, 521.74896, 527.31049, " y="266.95673, ">
			R$ 55,40
	</text>
	<path fill="none" stroke="black" stroke-width="0.21600001" stroke-miterlimit="4" d="M56.664 274.896L538.56 274.896"/>
	<text font-size="10" font-weight="600" font-family="Arial" x="363.52094, 370.19086, 376.29926, 382.40765, 385.73773, 391.84613, 395.17621, 400.73773, 403.51605, 406.84613, 409.62445, 416.84613, 422.40765, 425.18597, 430.7475, 436.30902, 441.87054, 444.64886, 450.21039, 455.77191, 458.55023, 461.88031, 464.65863, 470.22015, 472.99847, 481.89008, 487.99847, 493.56, 496.33832, 505.22992, 510.79144, 516.89984, 520.22992, 526.33832, 529.6684, 535.22992, " y="289.63675, ">
			Subtotal: R$ 183,90 · 2 movimento(s)
	</text>
	<rect fill="#F4F2EC" x="56.664001" y="300.384" width="481.896" height="19.872009"/>
	<text fill="#C2410C" font-size="10" font-weight="600" font-family="Arial" x="62.352001, 68.460403, 74.568802, 78.460403, 87.352005, 92.913528, 95.691849, 101.80025, 107.36177, 110.14009, 116.24849, 121.81001, 127.91841, 133.47993, 142.37154, 147.93306, 154.04146, 157.37154, 163.47993, 166.81001, 169.58833, 176.81001, 179.58833, 185.69673, 191.80513, 197.36665, 200.14497, 204.03658, " y="312.31674, ">
			Forma de pagamento: Dinheiro
	</text>
	<text font-size="9" font-family="Consolas" x="62.352001, 67.300247, 72.248489, 77.196732, 82.144974, " y="334.2233, ">
			09:12
	</text>
	<text font-size="10" font-family="Arial" x="124.704, 131.92569, 138.03409, 145.25577, 148.58585, 154.14737, 156.92569, 162.48721, 168.04874, 173.61026, 179.17178, 184.73331, " y="334.99673, ">
			NFC-e 001234
	</text>
	<text fill="gray" font-size="10" font-family="Arial" x="300.45599, 307.67767, 309.89935, 315.46088, 321.0224, 326.58392, 328.8056, 332.13568, " y="334.99673, ">
			Dinheiro
	</text>
	<text font-size="10" font-family="Arial" x="492.28607, 499.50775, 505.06927, 507.8476, 513.40912, 518.97064, 521.74896, 527.31049, " y="334.99673, ">
			R$ 45,20
	</text>
	<text font-size="9" font-family="Consolas" x="62.352001, 67.300247, 72.248489, 77.196732, 82.144974, " y="351.2153, ">
			12:21
	</text>
	<text font-size="10" font-family="Arial" x="124.704, 131.92569, 138.03409, 145.25577, 148.58585, 154.14737, 156.92569, 162.48721, 168.04874, 173.61026, 179.17178, 184.73331, " y="351.98874, ">
			NFC-e 001237
	</text>
	<text fill="gray" font-size="10" font-family="Arial" x="300.45599, 307.67767, 309.89935, 315.46088, 321.0224, 326.58392, 328.8056, 332.13568, " y="351.98874, ">
			Dinheiro
	</text>
	<text font-size="10" font-family="Arial" x="492.28607, 499.50775, 505.06927, 507.8476, 513.40912, 518.97064, 521.74896, 527.31049, " y="351.98874, ">
			R$ 18,90
	</text>
	<text font-size="9" font-family="Consolas" x="62.352001, 67.300247, 72.248489, 77.196732, 82.144974, " y="368.20731, ">
			16:11
	</text>
	<text font-size="10" font-family="Arial" x="124.704, 131.92569, 138.03409, 145.25577, 148.58585, 154.14737, 156.92569, 162.48721, 168.04874, 173.61026, 179.17178, 184.73331, " y="368.98074, ">
			NFC-e 001241
	</text>
	<text fill="gray" font-size="10" font-family="Arial" x="300.45599, 307.67767, 309.89935, 315.46088, 321.0224, 326.58392, 328.8056, 332.13568, " y="368.98074, ">
			Dinheiro
	</text>
	<text font-size="10" font-family="Arial" x="492.28607, 499.50775, 505.06927, 507.8476, 513.40912, 518.97064, 521.74896, 527.31049, " y="368.98074, ">
			R$ 12,50
	</text>
	<path fill="none" stroke="black" stroke-width="0.21600001" stroke-miterlimit="4" d="M56.664 376.92L538.56 376.92"/>
	<text font-size="10" font-weight="600" font-family="Arial" x="369.08246, 375.75238, 381.86078, 387.96918, 391.29926, 397.40765, 400.73773, 406.29926, 409.07758, 412.40765, 415.18597, 422.40765, 427.96918, 430.7475, 436.30902, 441.87054, 444.64886, 450.21039, 455.77191, 458.55023, 461.88031, 464.65863, 470.22015, 472.99847, 481.89008, 487.99847, 493.56, 496.33832, 505.22992, 510.79144, 516.89984, 520.22992, 526.33832, 529.6684, 535.22992, " y="391.66074, ">
			Subtotal: R$ 76,60 · 3 movimento(s)
	</text>
	<rect fill="#F4F2EC" x="56.664001" y="402.40799" width="481.896" height="19.872009"/>
	<text fill="#C2410C" font-size="10" font-weight="600" font-family="Arial" x="62.352001, 68.460403, 74.568802, 78.460403, 87.352005, 92.913528, 95.691849, 101.80025, 107.36177, 110.14009, 116.24849, 121.81001, 127.91841, 133.47993, 142.37154, 147.93306, 154.04146, 157.37154, 163.47993, 166.81001, 169.58833, 176.25826, 179.03658, " y="414.34073, ">
			Forma de pagamento: PIX
	</text>
	<text font-size="9" font-family="Consolas" x="62.352001, 67.300247, 72.248489, 77.196732, 82.144974, " y="436.24728, ">
			11:47
	</text>
	<text font-size="10" font-family="Arial" x="124.704, 131.92569, 138.03409, 145.25577, 148.58585, 154.14737, 156.92569, 162.48721, 168.04874, 173.61026, 179.17178, 184.73331, " y="437.02072, ">
			NFC-e 001236
	</text>
	<text fill="gray" font-size="10" font-family="Arial" x="300.45599, 307.12592, 309.90424, " y="437.02072, ">
			PIX
	</text>
	<text font-size="10" font-family="Arial" x="492.28607, 499.50775, 505.06927, 507.8476, 513.40912, 518.97064, 521.74896, 527.31049, " y="437.02072, ">
			R$ 67,80
	</text>
	<text font-size="9" font-family="Consolas" x="62.352001, 67.300247, 72.248489, 77.196732, 82.144974, " y="453.23929, ">
			14:42
	</text>
	<text font-size="10" font-family="Arial" x="124.704, 131.92569, 138.03409, 145.25577, 148.58585, 154.14737, 156.92569, 162.48721, 168.04874, 173.61026, 179.17178, 184.73331, " y="454.01273, ">
			NFC-e 001239
	</text>
	<text fill="gray" font-size="10" font-family="Arial" x="300.45599, 307.12592, 309.90424, " y="454.01273, ">
			PIX
	</text>
	<text font-size="10" font-family="Arial" x="492.28607, 499.50775, 505.06927, 507.8476, 513.40912, 518.97064, 521.74896, 527.31049, " y="454.01273, ">
			R$ 89,30
	</text>
	<text font-size="9" font-family="Consolas" x="62.352001, 67.300247, 72.248489, 77.196732, 82.144974, " y="470.23129, ">
			17:03
	</text>
	<text font-size="10" font-family="Arial" x="124.704, 131.92569, 138.03409, 145.25577, 148.58585, 154.14737, 156.92569, 162.48721, 168.04874, 173.61026, 179.17178, 184.73331, " y="471.00473, ">
			NFC-e 001242
	</text>
	<text fill="gray" font-size="10" font-family="Arial" x="300.45599, 307.12592, 309.90424, " y="471.00473, ">
			PIX
	</text>
	<text font-size="10" font-family="Arial" x="486.72455, 493.94623, 499.50775, 502.28607, 507.8476, 513.40912, 518.97064, 521.74896, 527.31049, " y="471.00473, ">
			R$ 145,00
	</text>
	<path fill="none" stroke="black" stroke-width="0.21600001" stroke-miterlimit="4" d="M56.664 478.944L538.56 478.944"/>
	<text font-size="10" font-weight="600" font-family="Arial" x="363.52094, 370.19086, 376.29926, 382.40765, 385.73773, 391.84613, 395.17621, 400.73773, 403.51605, 406.84613, 409.62445, 416.84613, 422.40765, 425.18597, 430.7475, 436.30902, 441.87054, 444.64886, 450.21039, 455.77191, 458.55023, 461.88031, 464.65863, 470.22015, 472.99847, 481.89008, 487.99847, 493.56, 496.33832, 505.22992, 510.79144, 516.89984, 520.22992, 526.33832, 529.6684, 535.22992, " y="493.68472, ">
			Subtotal: R$ 302,10 · 3 movimento(s)
	</text>
	<path fill="none" stroke="black" stroke-width="0.50400001" stroke-miterlimit="4" d="M56.664 501.624L538.56 501.624"/>
	<text font-size="12" font-weight="600" font-family="Arial" x="398.51508, 405.84515, 413.17523, 417.17133, 423.84515, 427.17914, 430.51312, 437.8432, 445.17328, 448.50726, 455.83734, 459.17133, 465.84515, 469.84125, 473.17523, 481.84125, 488.51508, 491.84906, 498.52289, 501.85687, 508.5307, 515.20453, 521.87836, 525.21234, 531.88617, " y="520.98328, ">
			Total do dia: R$ 1.109,30
	</text>
	<text fill="gray" font-size="10" font-family="Arial" x="299.00433, 307.33441, 312.89594, 317.89594, 320.11761, 328.44769, 334.00922, 339.57074, 342.34906, 347.91058, 352.91058, 355.6889, 358.46722, 364.02875, 369.59027, 372.36859, 375.69867, 378.47699, 386.80707, 392.36859, 394.59027, 400.15179, 403.48187, 406.26019, 409.03851, 416.26019, 421.82172, 424.60004, 430.16156, 435.72308, 441.28461, 444.06293, 449.62445, 455.18597, 457.96429, 461.29437, 464.07269, 472.40277, 477.96429, 483.52582, 489.08734, 492.41742, 495.19574, 497.97406, 505.19574, 510.75726, 513.53558, 519.09711, 524.65863, 527.43695, 532.99847, " y="544.66071, ">
			Movimentos: 10 · Maior: R$ 312,70 · Menor: R$ 12,50
	</text>
	<text fill="gray" font-size="8" font-family="Arial" x="56.664001, 62.886658, 69.55072, 73.999939, 75.777283, 81.554626, 86.003845, 90.453064, 94.902283, 97.566345, 99.789001, 102.01166, 104.67572, 106.89838, 111.3476, 115.79681, 118.01947, 122.46869, 126.91791, 129.14056, 133.58978, 138.039, 142.48822, 146.93744, 149.1601, 153.60931, 158.05853, 160.28119, 164.73041, " y="772.60217, ">
			OmniReport · 17/06/2026 18:15
	</text>
	<text fill="gray" font-size="8" font-family="Arial" x="489.11298, 494.44891, 498.89813, 503.34735, 505.12469, 509.57391, 514.02313, 516.24579, 520.69501, 522.91766, 527.36688, 531.8161, 534.03876, " y="772.60217, ">
			Página 1 de 1
	</text>
</svg>
