<?xml version="1.0" encoding="UTF-8"?>
<svg xmlns="http://www.w3.org/2000/svg" xmlns:xlink="http://www.w3.org/1999/xlink" viewBox="0 0 226.8 382.608" width="100%" height="100%" preserveAspectRatio="xMidYMid meet">
	<rect fill="white" width="226.8" height="382.608"/>
	<text font-size="9" font-family="Consolas" x="58.969334, 63.917576, 68.865814, 73.814056, 78.762299, 83.710541, 88.658783, 93.607025, 98.555267, 103.50351, 108.45175, 113.39999, 118.34824, 123.29648, 128.24472, 133.19296, 138.1412, 143.08945, 148.03769, 152.98593, 157.93417, 162.88242, " y="13.967297, ">
			PAPELARIA EXEMPLO LTDA
	</text>
	<text font-size="8" font-family="Consolas" x="60.618748, 65.017181, 69.415619, 73.814056, 78.212494, 82.610931, 87.009369, 91.407806, 95.806244, 100.20468, 104.60312, 109.00156, 113.39999, 117.79843, 122.19687, 126.59531, 130.99374, 135.39218, 139.79062, 144.18906, 148.58749, 152.98593, 157.38437, 161.78281, " y="27.231375, ">
			CNPJ: 12.345.678/0001-90
	</text>
	<text font-size="7" font-family="Consolas" x="34.503025, 38.351658, 42.200291, 46.048923, 49.897556, 53.746189, 57.594822, 61.443455, 65.292084, 69.140717, 72.989349, 76.837982, 80.686615, 84.535248, 88.383881, 92.232513, 96.081146, 99.929779, 103.77841, 107.62704, 111.47568, 115.32431, 119.17294, 123.02158, 126.87021, 130.71884, 134.56747, 138.41611, 142.26474, 146.11337, 149.96201, 153.81064, 157.65927, 161.5079, 165.35654, 169.20517, 173.0538, 176.90244, 180.75107, 184.5997, 188.44833, " y="37.615456, ">
			Av. Brasil, 1.000 — Centro — São Paulo/SP
	</text>
	<path fill="none" stroke="black" stroke-width="0.50400001" stroke-miterlimit="4" d="M5.688 56.736L221.112 56.736"/>
	<text font-size="7" font-family="Consolas" x="22.957127, 26.805759, 30.654392, 34.503025, 38.351658, 42.200291, 46.048923, 49.897556, 53.746189, 57.594822, 61.443455, 65.292084, 69.140717, 72.989349, 76.837982, 80.686615, 84.535248, 88.383881, 92.232513, 96.081146, 99.929779, 103.77841, 107.62704, 111.47568, 115.32431, 119.17294, 123.02158, 126.87021, 130.71884, 134.56747, 138.41611, 142.26474, 146.11337, 149.96201, 153.81064, 157.65927, 161.5079, 165.35654, 169.20517, 173.0538, 176.90244, 180.75107, 184.5997, 188.44833, 192.29697, 196.1456, 199.99423, " y="68.791458, ">
			Documento Auxiliar da Nota Fiscal de Consumidor
	</text>
	<text font-size="7" font-family="Consolas" x="94.156837, 98.00547, 101.8541, 105.70274, 109.55137, 113.4, 117.24863, 121.09727, 124.9459, 128.79453, " y="76.987747, ">
			Eletrônica
	</text>
	<path fill="none" stroke="black" stroke-width="0.50400001" stroke-miterlimit="4" d="M5.688 90.72L221.112 90.72"/>
	<text font-size="8" font-family="Consolas" x="5.6880002, 10.086437, 14.484875, 18.883312, 23.28175, 27.680187, 36.477062, 40.8755, 45.273937, 49.672375, 54.070812, 58.46925, 62.867687, 67.266129, 71.664566, " y="103.76737, ">
			# Cód Descrição
	</text>
	<text font-size="8" font-family="Consolas" x="5.6880002, 10.086437, 14.484875, 18.883312, 23.28175, 27.680187, 32.078625, 36.477062, 40.8755, 49.672375, 54.070812, 58.46925, 62.867687, 67.266129, 71.664566, 76.063004, 80.461441, 98.055191, 102.45363, 106.85207, 111.2505, 115.64894, " y="117.95138, ">
			Qtd UN x Vl.Unit Total
	</text>
	<path fill="none" stroke="black" stroke-width="0.21600001" stroke-miterlimit="4" d="M5.688 124.776L221.112 124.776"/>
	<text font-size="8" font-family="Consolas" x="5.6880002, 10.086437, 14.484875, 18.883312, 23.28175, 27.680187, 32.078625, 36.477062, 40.8755, 45.273937, 49.672375, 54.070812, 58.46925, 62.867687, 67.266129, 71.664566, 76.063004, 80.461441, 84.859879, 89.258316, 93.656754, 98.055191, 102.45363, 106.85207, " y="140.63138, ">
			001 0001 Caneta Bic Azul
	</text>
	<text font-size="8" font-family="Consolas" x="23.28175, 27.680187, 32.078625, 36.477062, 40.8755, 45.273937, 49.672375, 54.070812, 58.46925, 62.867687, 67.266129, 71.664566, 76.063004, 80.461441, 84.859879, " y="151.93538, ">
			2,000 UN x 2,50
	</text>
	<text font-size="8" font-family="Consolas" x="203.51825, 207.91669, 212.31512, 216.71356, " y="151.93538, ">
			5,00
	</text>
	<text font-size="8" font-family="Consolas" x="5.6880002, 10.086437, 14.484875, 18.883312, 23.28175, 27.680187, 32.078625, 36.477062, 40.8755, 45.273937, 49.672375, 54.070812, 58.46925, 62.867687, 67.266129, 71.664566, 76.063004, 80.461441, 84.859879, 89.258316, 93.656754, 98.055191, 102.45363, 106.85207, 111.2505, 115.64894, 120.04738, 124.44582, 128.84425, 133.24269, 137.64113, " y="166.11937, ">
			002 0003 Caderno Brochura 96fls
	</text>
	<text font-size="8" font-family="Consolas" x="23.28175, 27.680187, 32.078625, 36.477062, 40.8755, 45.273937, 49.672375, 54.070812, 58.46925, 62.867687, 67.266129, 71.664566, 76.063004, 80.461441, 84.859879, 89.258316, " y="177.42337, ">
			1,000 UN x 27,40
	</text>
	<text font-size="8" font-family="Consolas" x="199.11981, 203.51825, 207.91669, 212.31512, 216.71356, " y="177.42337, ">
			27,40
	</text>
	<text font-size="8" font-family="Consolas" x="5.6880002, 10.086437, 14.484875, 18.883312, 23.28175, 27.680187, 32.078625, 36.477062, 40.8755, 45.273937, 49.672375, 54.070812, 58.46925, 62.867687, 67.266129, 71.664566, 76.063004, 80.461441, 84.859879, 89.258316, 93.656754, 98.055191, 102.45363, 106.85207, 111.2505, 115.64894, 120.04738, 124.44582, 128.84425, 133.24269, 137.64113, " y="191.60738, ">
			003 0006 Lápis HB Faber-Castell
	</text>
	<text font-size="8" font-family="Consolas" x="23.28175, 27.680187, 32.078625, 36.477062, 40.8755, 45.273937, 49.672375, 54.070812, 58.46925, 62.867687, 67.266129, 71.664566, 76.063004, 80.461441, 84.859879, " y="202.91138, ">
			3,000 UN x 0,90
	</text>
	<text font-size="8" font-family="Consolas" x="203.51825, 207.91669, 212.31512, 216.71356, " y="202.91138, ">
			2,70
	</text>
	<text font-size="8" font-family="Consolas" x="5.6880002, 10.086437, 14.484875, 18.883312, 23.28175, 27.680187, 32.078625, 36.477062, 40.8755, 45.273937, 49.672375, 54.070812, 58.46925, 62.867687, 67.266129, 71.664566, 76.063004, 80.461441, 84.859879, 89.258316, 93.656754, 98.055191, 102.45363, 106.85207, 111.2505, 115.64894, 120.04738, 124.44582, 128.84425, 133.24269, 137.64113, 142.03957, 146.438, 150.83644, " y="217.09537, ">
			004 0004 Marcador de Texto Amarelo
	</text>
	<text font-size="8" font-family="Consolas" x="23.28175, 27.680187, 32.078625, 36.477062, 40.8755, 45.273937, 49.672375, 54.070812, 58.46925, 62.867687, 67.266129, 71.664566, 76.063004, 80.461441, 84.859879, 89.258316, " y="228.39937, ">
			1,000 UN x 11,90
	</text>
	<text font-size="8" font-family="Consolas" x="199.11981, 203.51825, 207.91669, 212.31512, 216.71356, " y="228.39937, ">
			11,90
	</text>
	<path fill="none" stroke="black" stroke-width="0.50400001" stroke-miterlimit="4" d="M5.688 235.224L221.112 235.224"/>
	<text font-size="10" font-family="Consolas" x="5.6880002, 11.186047, 16.684093, 22.18214, 27.680187, 33.178234, 38.676281, 44.174328, 49.672375, 55.170422, 60.668468, 66.166519, 71.664566, 77.162613, " y="250.11122, ">
			VALOR TOTAL R$
	</text>
	<text font-size="10" font-family="Consolas" x="193.62177, 199.11981, 204.61786, 210.11591, 215.61395, " y="250.11122, ">
			47,00
	</text>
	<text font-size="8" font-family="Consolas" x="5.6880002, 10.086437, 14.484875, 18.883312, 23.28175, 27.680187, 32.078625, 36.477062, 40.8755, 45.273937, 49.672375, 54.070812, 58.46925, 62.867687, 67.266129, 71.664566, 76.063004, 80.461441, 84.859879, 89.258316, 93.656754, 98.055191, 102.45363, 106.85207, 111.2505, 115.64894, 120.04738, 124.44582, 128.84425, 133.24269, 137.64113, 142.03957, 146.438, " y="270.95139, ">
			Forma de pagamento: Cartão Débito
	</text>
	<path fill="none" stroke="black" stroke-width="0.21600001" stroke-miterlimit="4" d="M5.688 280.584L221.112 280.584"/>
	<text font-size="7" font-family="Consolas" x="55.670506, 59.519138, 63.367771, 67.2164, 71.065033, 74.913666, 78.762299, 82.610931, 86.459564, 90.308197, 94.15683, 98.005463, 101.8541, 105.70273, 109.55136, 113.39999, 117.24863, 121.09726, 124.94589, 128.79453, 132.64316, 136.49179, 140.34042, 144.18906, 148.03769, 151.88632, 155.73495, 159.58359, 163.43222, 167.28085, " y="292.71146, ">
			Consulte pela chave de acesso:
	</text>
	<text font-size="8" font-weight="600" font-family="Consolas" x="16.634373, 21.03281, 25.431248, 29.829685, 34.228123, 38.62656, 43.024998, 47.423435, 51.821873, 56.22031, 60.618748, 65.017181, 69.415619, 73.814056, 78.212494, 82.610931, 87.009369, 91.407806, 95.806244, 100.20468, 104.60312, 109.00156, 113.39999, 117.79843, 122.19687, 126.59531, 130.99374, 135.39218, 139.79062, 144.18906, 148.58749, 152.98593, 157.38437, 161.78281, 166.18124, 170.57968, 174.97812, 179.37656, 183.77499, 188.17343, 192.57187, 196.97031, 201.36874, 205.76718, " y="304.93536, ">
			3526 0512 3456 7800 0190 6500 1000 0123 4510
	</text>
	<text font-size="8" font-weight="600" font-family="Consolas" x="93.607033, 98.00547, 102.40391, 106.80235, 111.20078, 115.59922, 119.99766, 124.3961, 128.79453, " y="314.30255, ">
			0000 0017
	</text>
	<text font-size="7" font-family="Consolas" x="26.805759, 30.654392, 34.503025, 38.351658, 42.200291, 46.048923, 49.897556, 53.746189, 57.594822, 61.443455, 65.292084, 69.140717, 72.989349, 76.837982, 80.686615, 84.535248, 88.383881, 92.232513, 96.081146, 99.929779, 103.77841, 107.62704, 111.47568, 115.32431, 119.17294, 123.02158, 126.87021, 130.71884, 134.56747, 138.41611, 142.26474, 146.11337, 149.96201, 153.81064, 157.65927, 161.5079, 165.35654, 169.20517, 173.0538, 176.90244, 180.75107, 184.5997, 188.44833, 192.29697, 196.1456, " y="332.38345, ">
			Protocolo: 135260000000123 — 23/05/2026 14:32
	</text>
	<text fill="gray" font-size="7" font-family="Consolas" x="36.427341, 40.275974, 44.124607, 47.97324, 51.821873, 55.670506, 59.519138, 63.367771, 67.2164, 71.065033, 74.913666, 78.762299, 82.610931, 86.459564, 90.308197, 94.15683, 98.005463, 101.8541, 105.70273, 109.55136, 113.39999, 117.24863, 121.09726, 124.94589, 128.79453, 132.64316, 136.49179, 140.34042, 144.18906, 148.03769, 151.88632, 155.73495, 159.58359, 163.43222, 167.28085, 171.12949, 174.97812, 178.82675, 182.67538, 186.52402, " y="349.37546, ">
			Tributos totais (Lei 12.741/12): R$ 8,46
	</text>
	<path fill="none" stroke="black" stroke-width="0.21600001" stroke-miterlimit="4" d="M5.688 359.928L221.112 359.928"/>
	<text fill="gray" font-size="7" font-family="Consolas" x="34.503025, 38.351658, 42.200291, 46.048923, 49.897556, 53.746189, 57.594822, 61.443455, 65.292084, 69.140717, 72.989349, 76.837982, 80.686615, 84.535248, 88.383881, 92.232513, 96.081146, 99.929779, 103.77841, 107.62704, 111.47568, 115.32431, 119.17294, 123.02158, 126.87021, 130.71884, 134.56747, 138.41611, 142.26474, 146.11337, 149.96201, 153.81064, 157.65927, 161.5079, 165.35654, 169.20517, 173.0538, 176.90244, 180.75107, 184.5997, 188.44833, " y="372.05545, ">
			Emitido por OmniReport · 17/06/2026 18:15
	</text>
</svg>
