<?xml version="1.0" encoding="UTF-8"?>
<svg xmlns="http://www.w3.org/2000/svg" xmlns:xlink="http://www.w3.org/1999/xlink" viewBox="0 0 595.296 1699.792" width="100%" height="100%" preserveAspectRatio="xMidYMid meet">
	<rect fill="white" width="595.29602" height="841.896"/>
	<rect fill="none" stroke="#966C29" stroke-width="1.512" stroke-miterlimit="4" x="56.664001" y="56.664001" width="481.96796" height="728.56799"/>
	<rect fill="none" stroke="#966C29" stroke-width="0.50400001" stroke-miterlimit="4" x="65.160004" y="65.160004" width="464.97598" height="711.57593"/>
	<text font-size="28" font-weight="600" font-family="Times New Roman" x="198.08258, 218.30328, 236.97906, 257.19977, 275.87555, 286.77203, 303.87555, 314.77203, 334.99274, 355.21344, 375.43414, " y="166.71918, ">
			CERTIFICADO
	</text>
	<text fill="gray" font-size="14" font-style="italic" font-family="Times New Roman" x="240.47905, 249.81694, 256.81696, 263.81696, 270.03082, 273.92047, 280.92047, 286.36871, 293.36871, 300.36871, 303.86871, 310.86871, 317.08258, 320.58258, 329.92047, 336.92047, 342.36871, 347.81696, " y="192.11559, ">
			Conclusão de Curso
	</text>
	<text font-size="12" font-family="Georgia" x="99.499435, 107.20451, 113.00529, 117.92131, 122.06389, 125.57951, 129.48186, 132.99748, 138.4467, 144.49358, 155.06389, 161.53264, 166.71819, 169.61272, 176.32756, 183.2299, 189.03069, 191.92522, 199.976, 209.18108, 218.16936, 226.0092, 234.42912, 241.16154, 250.09123, 259.29633, 262.19086, 269.38031, 277.22015, 285.64008, 294.84515, 302.89594, 312.10101, 321.08929, 328.92914, 335.66156, 338.55609, 344.00531, 350.47406, 357.5639, 363.01312, 366.44672, 373.34906, 376.86469, 383.76703, 386.66156, 392.11078, 398.57953, 409.14984, 412.04437, 418.09125, 424.94672, 429.86273, 436.33148, 442.29047, 448.09125, 451.60687, 455.74945, 461.79633, 472.36664, 478.16742, 485.25726, 489.39984, " y="280.28391, ">
			Certificamos que ANDERSON FERNANDES concluiu com aproveitamento
	</text>
	<text font-size="12" font-family="Georgia" x="110.81096, 117.27971, 120.17424, 125.62346, 132.5258, 137.44182, 142.62737, 149.09612, 151.99065, 158.88127, 164.68205, 167.57658, 176.56487, 184.40471, 191.13713, 195.81291, 204.51408, 213.71916, 216.61369, 225.60197, 233.44182, 236.33635, 244.75627, 252.59612, 259.83832, 267.8891, 275.31293, 284.24261, 292.66254, 297.33832, 306.26801, 313.00043, 315.89496, 323.74066, 331.79144, 340.99652, 349.9848, 358.03558, 367.02386, 375.95355, 382.68597, 385.92035, 388.81488, 394.2641, 400.73285, 411.30316, 414.19769, 419.64691, 425.69379, 430.6098, 436.72113, 442.76801, 445.66254, 452.64691, 459.11566, 464.03168, 470.07855, 474.99457, 478.51019, " y="293.91867, ">
			o curso de DESIGN DE RELATÓRIOS BANDADOS, com carga horária
	</text>
	<text font-size="12" font-family="Georgia" x="99.429123, 103.5717, 110.04045, 114.18303, 120.2299, 123.6635, 126.55803, 133.44865, 139.24944, 142.14397, 148.92326, 156.2885, 159.18303, 166.1674, 172.63615, 177.55217, 183.59904, 188.78459, 192.01897, 194.9135, 200.96037, 205.10295, 210.90373, 217.99358, 224.8842, 230.68498, 237.77483, 244.66545, 251.1342, 254.02873, 260.07562, 266.54437, 271.72992, 274.62445, 279.54047, 285.34125, 292.05609, 298.95844, 302.47406, 307.65961, 311.17523, 315.31781, 321.78656, 326.97211, 329.86664, 335.66742, 340.85297, 344.99554, 351.04242, 357.76312, 363.5639, 366.9975, 372.79828, 378.2475, 381.76312, 388.65375, 395.1225, 400.30804, 403.20258, 410.05804, 415.85883, 419.29242, 425.76117, 428.6557, 433.57172, 439.3725, 445.48383, 452.38617, 455.81976, 461.86664, 472.43695, 478.23773, 485.32758, 489.47015, " y="307.55344, ">
			total de 40 horas, atendendo aos requisitos estabelecidos pelo regulamento
	</text>
	<text font-size="12" font-family="Georgia" x="260.16351, 267.05414, 273.10101, 275.99554, 279.51117, 286.60101, 291.78656, 295.92914, 299.44476, 303.58734, 310.48969, 314.00531, 319.45453, 325.5014, 331.97015, " y="321.1882, ">
			da instituição.
	</text>
	<path fill="none" stroke="black" stroke-width="0.50400001" stroke-miterlimit="4" d="M85.032 467.712L283.464 467.712"/>
	<path fill="none" stroke="black" stroke-width="0.50400001" stroke-miterlimit="4" d="M311.832 467.712L510.264 467.712"/>
	<text font-size="10" font-weight="600" font-family="Arial" x="158.12251, 166.45259, 172.01411, 175.90572, 178.68404, 184.24556, 187.02388, 193.6938, 196.47212, 199.25044, 204.81197, " y="482.45273, ">
			Maria Silva
	</text>
	<text fill="gray" font-size="9" font-family="Arial" x="135.96748, 142.467, 147.47237, 152.47774, 155.47481, 160.48018, 165.48555, 170.49092, 175.49629, 180.50166, 185.50703, 188.5041, 193.50948, 196.00996, 201.01534, 206.02071, 208.52119, 215.02071, 220.02608, 223.02315, 227.52315, " y="495.73148, ">
			Coordenadora do Curso
	</text>
	<text font-size="10" font-weight="600" font-family="Arial" x="381.03091, 386.59244, 392.70084, 398.26236, 404.37076, 407.14908, 413.819, 419.38052, 423.27213, 428.83365, 431.61197, 435.50357, " y="482.45273, ">
			João Pereira
	</text>
	<text fill="gray" font-size="9" font-family="Arial" x="385.29166, 391.79117, 393.79068, 396.78775, 401.79312, 404.29361, 409.29898, 412.29605, 414.79654, 421.79703, 426.8024, 429.79947, 434.80484, " y="495.73148, ">
			Diretor Geral
	</text>
	<rect fill="white" transform="translate(0 857.896)" width="595.29602" height="841.896"/>
	<rect fill="#C2410C" transform="translate(0 857.896)" x="56.664001" y="56.664001" width="481.96796" height="42.552002"/>
	<text fill="white" transform="translate(0 857.896)" font-size="16" font-weight="600" font-family="Arial" x="67.968002, 77.74144, 89.296127, 99.069565, 110.62425, 122.17894, 133.73363, 138.17894, 149.73363, 155.57738, 160.02269, 168.92113, 177.81956, 186.718, 195.61644, 200.06175, 208.96019, 217.85863, 226.75706, " y="79.644379, ">
			FATURA Nº 2026/0042
	</text>
	<rect fill="#333" transform="translate(0 857.896)" x="56.664001" y="127.512" width="481.96796" height="22.68"/>
	<text fill="white" transform="translate(0 857.896)" font-size="10" font-weight="600" font-family="Arial" x="62.352001, 69.573685, 75.135208, 80.696732, 86.258255, 90.149857, 92.928177, 98.4897, 104.05122, " y="139.37274, ">
			Descrição
	</text>
	<text fill="white" transform="translate(0 857.896)" font-size="10" font-weight="600" font-family="Arial" x="345.66321, 353.44153, 356.77161, " y="139.37274, ">
			Qtd
	</text>
	<text fill="white" transform="translate(0 857.896)" font-size="10" font-weight="600" font-family="Arial" x="404.44568, 411.66736, 417.77576, 420.55408, 423.88416, 429.44568, 433.33728, 436.1156, " y="139.37274, ">
			Unitário
	</text>
	<text fill="white" transform="translate(0 857.896)" font-size="10" font-weight="600" font-family="Arial" x="509.05725, 515.16565, 521.27405, 524.60413, 530.16565, " y="139.37274, ">
			Total
	</text>
	<path fill="none" stroke="#D3D3D3" stroke-width="0.28799999" stroke-miterlimit="4" transform="translate(0 857.896)" d="M56.664 172.872L538.632 172.872"/>
	<text transform="translate(0 857.896)" font-size="10" font-family="Arial" x="62.352001, 68.460403, 74.021927, 77.352005, 79.573685, 85.135208, 90.696732, 96.258255, 99.036575, 104.5981, 110.15962, 112.93794, 119.04634, 122.37642, 124.5981, 130.15962, 135.72115, 138.49947, 144.06099, 149.62251, 154.62251, " y="164.93274, ">
			Farinha de Trigo 25kg
	</text>
	<text transform="translate(0 857.896)" font-size="10" font-family="Arial" x="351.75696, 357.31848, " y="164.93274, ">
			12
	</text>
	<text transform="translate(0 857.896)" font-size="10" font-family="Arial" x="396.07654, 403.29822, 408.85974, 411.63806, 417.19958, 422.76111, 428.32263, 431.10095, 436.66248, " y="164.93274, ">
			R$ 148,90
	</text>
	<text transform="translate(0 857.896)" font-size="10" font-family="Arial" x="478.45667, 485.67834, 491.23987, 494.01819, 499.57971, 502.35803, 507.91956, 513.48108, 519.0426, 521.82092, 527.38245, " y="164.93274, ">
			R$ 1.786,80
	</text>
	<path fill="none" stroke="#D3D3D3" stroke-width="0.28799999" stroke-miterlimit="4" transform="translate(0 857.896)" d="M56.664 195.552L538.632 195.552"/>
	<text transform="translate(0 857.896)" font-size="10" font-family="Arial" x="62.352001, 69.021927, 74.021927, 79.58345, 84.58345, 90.144974, 93.475052, 96.253372, 103.47505, 109.03658, 111.8149, 114.03658, 119.5981, 125.15962, 130.72115, 136.28267, 139.06099, 144.62251, 149.62251, " y="187.61273, ">
			Açúcar Refinado 1kg
	</text>
	<text transform="translate(0 857.896)" font-size="10" font-family="Arial" x="351.75696, 357.31848, " y="187.61273, ">
			48
	</text>
	<text transform="translate(0 857.896)" font-size="10" font-family="Arial" x="407.19958, 414.42126, 419.98279, 422.76111, 428.32263, 431.10095, 436.66248, " y="187.61273, ">
			R$ 4,20
	</text>
	<text transform="translate(0 857.896)" font-size="10" font-family="Arial" x="486.79651, 494.01819, 499.57971, 502.35803, 507.91956, 513.48108, 519.0426, 521.82092, 527.38245, " y="187.61273, ">
			R$ 201,60
	</text>
	<path fill="none" stroke="#D3D3D3" stroke-width="0.28799999" stroke-miterlimit="4" transform="translate(0 857.896)" d="M56.664 218.232L538.632 218.232"/>
	<text transform="translate(0 857.896)" font-size="10" font-family="Arial" x="62.352001, 68.460403, 74.021927, 77.352005, 85.682083, 91.243607, 96.80513, 99.58345, 105.14497, 107.92329, 114.59322, 116.8149, 122.37642, 124.5981, 130.15962, 135.72115, 137.94283, 142.94283, 148.50435, 151.28267, 156.84419, 162.40572, 167.96724, " y="210.29274, ">
			Fermento Biológico 100g
	</text>
	<text transform="translate(0 857.896)" font-size="10" font-family="Arial" x="357.31848, " y="210.29274, ">
			6
	</text>
	<text transform="translate(0 857.896)" font-size="10" font-family="Arial" x="401.63806, 408.85974, 414.42126, 417.19958, 422.76111, 428.32263, 431.10095, 436.66248, " y="210.29274, ">
			R$ 11,75
	</text>
	<text transform="translate(0 857.896)" font-size="10" font-family="Arial" x="492.35803, 499.57971, 505.14124, 507.91956, 513.48108, 519.0426, 521.82092, 527.38245, " y="210.29274, ">
			R$ 70,50
	</text>
	<path fill="none" stroke="#D3D3D3" stroke-width="0.28799999" stroke-miterlimit="4" transform="translate(0 857.896)" d="M56.664 240.912L538.632 240.912"/>
	<text transform="translate(0 857.896)" font-size="10" font-family="Arial" x="62.352001, 69.021927, 77.352005, 82.913528, 88.475052, 90.696732, 96.258255, 101.81978, 107.3813, 115.71138, 118.4897, 125.15962, 131.82954, 134.60786, 140.16939, 145.16939, " y="232.97273, ">
			Embalagem PE 5kg
	</text>
	<text transform="translate(0 857.896)" font-size="10" font-family="Arial" x="351.75696, 357.31848, " y="232.97273, ">
			30
	</text>
	<text transform="translate(0 857.896)" font-size="10" font-family="Arial" x="407.19958, 414.42126, 419.98279, 422.76111, 428.32263, 431.10095, 436.66248, " y="232.97273, ">
			R$ 0,95
	</text>
	<text transform="translate(0 857.896)" font-size="10" font-family="Arial" x="492.35803, 499.57971, 505.14124, 507.91956, 513.48108, 519.0426, 521.82092, 527.38245, " y="232.97273, ">
			R$ 28,50
	</text>
	<path fill="none" stroke="black" stroke-width="0.72000003" stroke-miterlimit="4" transform="translate(0 857.896)" d="M368.568 243.72L538.632 243.72"/>
	<text transform="translate(0 857.896)" font-size="11" font-weight="600" font-family="Arial" x="405.56628, 412.28552, 420.84167, 427.56091, 435.50476, " y="259.36603, ">
			TOTAL
	</text>
	<text transform="translate(0 857.896)" font-size="11" font-weight="600" font-family="Arial" x="473.00793, 480.95178, 487.06946, 490.12561, 496.24329, 499.29944, 505.41711, 511.53479, 517.65247, 520.70862, 526.82629, " y="259.36603, ">
			R$ 2.087,40
	</text>
	<text fill="gray" transform="translate(0 857.896)" font-size="9" font-family="Arial" x="56.664001, 62.666931, 70.164001, 72.163513, 74.664001, 76.663513, 81.668884, 86.674255, 89.174744, 94.180115, 101.67719, 104.17767, 109.18304, 114.18842, 116.6889, 121.69427, 126.69965, 129.20013, 134.20551, 139.21088, 144.21625, " y="793.37946, ">
			Emitido em 25/05/2026
	</text>
	<text fill="gray" transform="translate(0 857.896)" font-size="9" font-family="Arial" x="483.12, 489.12292, 494.1283, 499.13367, 501.13318, 506.13855, 511.14392, 513.64441, 518.64978, 521.15027, 526.15564, " y="793.37946, ">
			Página 2 de
	</text>
	<text fill="gray" transform="translate(0 857.896)" font-size="9" font-family="Arial" x="483.12, " y="803.72858, ">
			2
	</text>
</svg>
