<?xml version="1.0" encoding="UTF-8"?>
<svg xmlns="http://www.w3.org/2000/svg" xmlns:xlink="http://www.w3.org/1999/xlink" viewBox="0 0 595.296 841.896" width="100%" height="100%" preserveAspectRatio="xMidYMid meet">
	<rect fill="white" width="595.29602" height="841.896"/>
	<text font-size="16" font-weight="600" font-family="Arial" x="165.15106, 176.70575, 185.60419, 190.0495, 198.94794, 204.27606, 214.0495, 220.27606, 224.72137, 234.49481, 238.94012, 248.71356, 257.612, 262.05731, 272.72919, 281.62762, 291.40106, 295.84637, 305.61981, 315.39325, 324.29169, 328.737, 334.06512, 338.51044, 348.28387, 358.05731, 367.83075, 373.15887, 382.05731, 386.50262, 395.40106, 406.07294, 418.51825, " y="71.148376, ">
			Relatório de Pedidos · Fonte JSON
	</text>
	<text fill="gray" font-size="10" font-family="Arial" x="133.08563, 140.86395, 144.19403, 146.41571, 151.97723, 157.53876, 165.86884, 168.64716, 171.42548, 176.987, 182.54852, 188.11005, 190.33173, 195.89325, 201.45477, 206.45477, 209.23309, 211.45477, 216.45477, 222.0163, 227.57782, 230.35614, 233.68622, 236.46454, 243.68622, 249.24774, 252.57782, 255.9079, 261.46942, 267.03094, 272.59247, 278.15399, 283.71552, 286.49384, 291.49384, 293.71552, 299.27704, 302.05536, 307.05536, 312.05536, 317.61688, 323.17841, 330.40009, 335.96161, 338.73993, 344.30145, 350.97137, 356.5329, 362.09442, 365.4245, 370.4245, 375.98602, 378.76434, 382.09442, 387.65594, 393.21747, 395.99579, 401.55731, 404.33563, 407.11395, 412.67548, 418.237, 421.01532, 426.57684, 429.35516, 432.68524, 438.24677, 443.24677, 448.80829, 451.02997, 453.80829, 458.80829, " y="105.38873, ">
			Origem: pedidos.json · Carregado via JsonDataSource (path: data.results)
	</text>
	<path fill="none" stroke="black" stroke-width="0.50400001" stroke-miterlimit="4" d="M56.664 119.016L538.56 119.016"/>
	<text font-size="10" font-weight="600" font-family="Arial" x="56.664001, 63.333923, 67.225525, 73.333923, 79.442322, 85.55072, 88.880798, " y="145.06073, ">
			Produto
	</text>
	<text font-size="10" font-weight="600" font-family="Arial" x="308.85367, 316.63199, 319.96207, 326.07047, " y="145.06073, ">
			Qtde
	</text>
	<text font-size="10" font-weight="600" font-family="Arial" x="388.87103, 395.54095, 399.43256, 404.99408, 410.5556, " y="145.06073, ">
			Preço
	</text>
	<text font-size="10" font-weight="600" font-family="Arial" x="477.80927, 483.91766, 490.02606, 493.35614, 498.91766, " y="145.06073, ">
			Total
	</text>
	<text font-size="10" font-weight="600" font-family="Arial" x="507.99847, 514.6684, 517.99847, 523.56, 526.89008, 532.99847, " y="145.06073, ">
			Status
	</text>
	<path fill="none" stroke="black" stroke-width="0.21600001" stroke-miterlimit="4" d="M56.664 153L538.56 153"/>
	<text fill="#C2410C" font-size="11" font-weight="600" font-family="Arial" x="56.664001, 64.607849, 67.664001, 70.720154, 76.83783, 83.557068, 87.220154, 93.33783, 97.000916, 100.05707, 108.00092, 114.72015, 120.83783, 123.89398, 131.2309, 137.95013, 144.66937, 150.16937, " y="174.33401, ">
			Cliente: Ana Souza
	</text>
	<text font-size="10" font-family="Arial" x="56.664001, 63.885681, 69.447205, 72.225525, 77.787048, 83.348572, 88.910095, 94.471619, 99.471619, 102.24994, 109.47162, 115.03314, 117.25482, 119.4765, 122.25482, 128.92474, 135.59467, 142.26459, 145.04291, 150.60443, " y="196.10873, ">
			Notebook Dell XPS 13
	</text>
	<text font-size="10" font-family="Arial" x="326.07047, " y="196.10873, ">
			1
	</text>
	<text font-size="10" font-family="Arial" x="362.1767, 369.39838, 374.9599, 377.73822, 383.29974, 386.07806, 391.63959, 397.20111, 402.76263, 405.54095, 411.10248, " y="196.10873, ">
			R$ 9.500,00
	</text>
	<text font-size="10" font-family="Arial" x="447.20868, 454.43036, 459.99188, 462.7702, 468.33173, 471.11005, 476.67157, 482.23309, 487.79462, 490.57294, 496.13446, " y="196.10873, ">
			R$ 9.500,00
	</text>
	<text fill="gray" font-size="8" font-family="Arial" x="519.8764, 525.21234, 529.66156, 534.11078, " y="194.29819, ">
			Pago
	</text>
	<text font-size="10" font-family="Arial" x="56.664001, 64.99408, 70.555603, 76.117126, 81.117126, 86.67865, 89.45697, 95.018494, 100.58002, 106.14154, 108.36322, 111.14154, 116.70306, 121.70306, 127.26459, 130.04291, 138.37299, " y="213.10074, ">
			Mouse Logitech MX
	</text>
	<text font-size="10" font-family="Arial" x="326.07047, " y="213.10074, ">
			2
	</text>
	<text font-size="10" font-family="Arial" x="370.51654, 377.73822, 383.29974, 386.07806, 391.63959, 397.20111, 402.76263, 405.54095, 411.10248, " y="213.10074, ">
			R$ 350,00
	</text>
	<text font-size="10" font-family="Arial" x="455.54852, 462.7702, 468.33173, 471.11005, 476.67157, 482.23309, 487.79462, 490.57294, 496.13446, " y="213.10074, ">
			R$ 700,00
	</text>
	<text fill="gray" font-size="8" font-family="Arial" x="519.8764, 525.21234, 529.66156, 534.11078, " y="211.29019, ">
			Pago
	</text>
	<path fill="none" stroke="black" stroke-width="0.21600001" stroke-miterlimit="4" d="M56.664 221.04L538.56 221.04"/>
	<text font-size="10" font-weight="600" font-family="Arial" x="432.40765, 439.07758, 445.18597, 451.29437, 454.62445, 460.73285, 464.06293, 469.62445, 472.40277, 475.73285, 478.51117, 485.73285, 491.29437, 494.07269, 499.63422, 505.19574, 507.97406, 513.53558, 519.09711, 524.65863, 527.43695, 532.99847, " y="232.90074, ">
			Subtotal: R$ 10.200,00
	</text>
	<text fill="#C2410C" font-size="11" font-weight="600" font-family="Arial" x="56.664001, 64.607849, 67.664001, 70.720154, 76.83783, 83.557068, 87.220154, 93.33783, 97.000916, 100.05707, 108.00092, 114.11859, 117.78168, 124.50092, 127.55707, 134.27631, 137.33246, 147.11322, " y="259.36603, ">
			Cliente: Beto Lima
	</text>
	<text font-size="10" font-family="Arial" x="56.664001, 62.7724, 68.333923, 73.333923, 75.555603, 81.117126, 86.67865, 92.240173, 95.018494, 103.34857, 108.9101, 113.9101, 119.47162, 125.03314, 127.25482, 132.25482, " y="281.14075, ">
			Teclado Mecânico
	</text>
	<text font-size="10" font-family="Arial" x="326.07047, " y="281.14075, ">
			1
	</text>
	<text font-size="10" font-family="Arial" x="370.51654, 377.73822, 383.29974, 386.07806, 391.63959, 397.20111, 402.76263, 405.54095, 411.10248, " y="281.14075, ">
			R$ 890,00
	</text>
	<text font-size="10" font-family="Arial" x="455.54852, 462.7702, 468.33173, 471.11005, 476.67157, 482.23309, 487.79462, 490.57294, 496.13446, " y="281.14075, ">
			R$ 890,00
	</text>
	<text fill="gray" font-size="8" font-family="Arial" x="519.8764, 525.21234, 529.66156, 534.11078, " y="279.3302, ">
			Pago
	</text>
	<text font-size="10" font-family="Arial" x="56.664001, 64.99408, 70.555603, 76.117126, 78.338806, 81.117126, 86.67865, 90.008728, 92.787048, 98.348572, 103.9101, 106.68842, 112.24994, " y="298.13272, ">
			Monitor 27 4K
	</text>
	<text font-size="10" font-family="Arial" x="326.07047, " y="298.13272, ">
			1
	</text>
	<text font-size="10" font-family="Arial" x="362.1767, 369.39838, 374.9599, 377.73822, 383.29974, 386.07806, 391.63959, 397.20111, 402.76263, 405.54095, 411.10248, " y="298.13272, ">
			R$ 3.200,00
	</text>
	<text font-size="10" font-family="Arial" x="447.20868, 454.43036, 459.99188, 462.7702, 468.33173, 471.11005, 476.67157, 482.23309, 487.79462, 490.57294, 496.13446, " y="298.13272, ">
			R$ 3.200,00
	</text>
	<text fill="gray" font-size="8" font-family="Arial" x="504.30609, 509.64203, 514.09125, 518.54047, 522.98969, 527.4389, 531.88812, 534.11078, " y="296.32217, ">
			Pendente
	</text>
	<path fill="none" stroke="black" stroke-width="0.21600001" stroke-miterlimit="4" d="M56.664 306.072L538.56 306.072"/>
	<text font-size="10" font-weight="600" font-family="Arial" x="437.96918, 444.6391, 450.7475, 456.8559, 460.18597, 466.29437, 469.62445, 475.18597, 477.96429, 481.29437, 484.07269, 491.29437, 496.8559, 499.63422, 505.19574, 507.97406, 513.53558, 519.09711, 524.65863, 527.43695, 532.99847, " y="317.93274, ">
			Subtotal: R$ 4.090,00
	</text>
	<text fill="#C2410C" font-size="11" font-weight="600" font-family="Arial" x="56.664001, 64.607849, 67.664001, 70.720154, 76.83783, 83.557068, 87.220154, 93.33783, 97.000916, 100.05707, 108.00092, 114.11859, 118.39935, 121.45551, 127.57318, 130.62933, 139.79242, 145.9101, 152.62933, 159.34857, 165.46625, " y="344.39801, ">
			Cliente: Carla Mendes
	</text>
	<text font-size="10" font-family="Arial" x="56.664001, 66.102478, 71.664001, 77.225525, 82.225525, 87.787048, 96.117126, 98.895447, 105.00385, 110.56537, 112.78705, 115.00873, 117.78705, 125.00873, " y="366.17273, ">
			Webcam Full HD
	</text>
	<text font-size="10" font-family="Arial" x="326.07047, " y="366.17273, ">
			1
	</text>
	<text font-size="10" font-family="Arial" x="370.51654, 377.73822, 383.29974, 386.07806, 391.63959, 397.20111, 402.76263, 405.54095, 411.10248, " y="366.17273, ">
			R$ 480,00
	</text>
	<text font-size="10" font-family="Arial" x="455.54852, 462.7702, 468.33173, 471.11005, 476.67157, 482.23309, 487.79462, 490.57294, 496.13446, " y="366.17273, ">
			R$ 480,00
	</text>
	<text fill="gray" font-size="8" font-family="Arial" x="519.8764, 525.21234, 529.66156, 534.11078, " y="364.36218, ">
			Pago
	</text>
	<text font-size="10" font-family="Arial" x="56.664001, 63.885681, 69.447205, 75.008728, 80.570251, 85.570251, 91.131775, 93.910095, 96.688416, 103.35834, 105.58002, 111.14154, 116.70306, 119.48138, 125.04291, 130.60443, 133.38275, " y="383.16473, ">
			Headset Bluetooth
	</text>
	<text font-size="10" font-family="Arial" x="326.07047, " y="383.16473, ">
			1
	</text>
	<text font-size="10" font-family="Arial" x="370.51654, 377.73822, 383.29974, 386.07806, 391.63959, 397.20111, 402.76263, 405.54095, 411.10248, " y="383.16473, ">
			R$ 690,00
	</text>
	<text font-size="10" font-family="Arial" x="455.54852, 462.7702, 468.33173, 471.11005, 476.67157, 482.23309, 487.79462, 490.57294, 496.13446, " y="383.16473, ">
			R$ 690,00
	</text>
	<text fill="gray" font-size="8" font-family="Arial" x="519.8764, 525.21234, 529.66156, 534.11078, " y="381.35419, ">
			Pago
	</text>
	<path fill="none" stroke="black" stroke-width="0.21600001" stroke-miterlimit="4" d="M56.664 391.104L538.56 391.104"/>
	<text font-size="10" font-weight="600" font-family="Arial" x="437.96918, 444.6391, 450.7475, 456.8559, 460.18597, 466.29437, 469.62445, 475.18597, 477.96429, 481.29437, 484.07269, 491.29437, 496.8559, 499.63422, 505.19574, 507.97406, 513.53558, 519.09711, 524.65863, 527.43695, 532.99847, " y="402.96472, ">
			Subtotal: R$ 1.170,00
	</text>
	<text fill="#C2410C" font-size="11" font-weight="600" font-family="Arial" x="56.664001, 64.607849, 67.664001, 70.720154, 76.83783, 83.557068, 87.220154, 93.33783, 97.000916, 100.05707, 108.00092, 111.05707, 117.17474, 123.89398, 130.61322, 133.66937, 141.61322, 148.33246, 154.45013, 158.11322, " y="429.42999, ">
			Cliente: Diego Costa
	</text>
	<text font-size="10" font-family="Arial" x="56.664001, 63.333923, 70.003845, 77.225525, 80.003845, 87.225525, 93.895447, 102.22552, 107.78705, 110.56537, 116.12689, 122.23529, " y="451.20474, ">
			SSD NVMe 1TB
	</text>
	<text font-size="10" font-family="Arial" x="326.07047, " y="451.20474, ">
			2
	</text>
	<text font-size="10" font-family="Arial" x="370.51654, 377.73822, 383.29974, 386.07806, 391.63959, 397.20111, 402.76263, 405.54095, 411.10248, " y="451.20474, ">
			R$ 750,00
	</text>
	<text font-size="10" font-family="Arial" x="447.20868, 454.43036, 459.99188, 462.7702, 468.33173, 471.11005, 476.67157, 482.23309, 487.79462, 490.57294, 496.13446, " y="451.20474, ">
			R$ 1.500,00
	</text>
	<text fill="gray" font-size="8" font-family="Arial" x="519.8764, 525.21234, 529.66156, 534.11078, " y="449.3942, ">
			Pago
	</text>
	<text font-size="10" font-family="Arial" x="56.664001, 63.885681, 69.447205, 75.008728, 80.570251, 83.348572, 90.570251, 97.240173, 103.9101, 107.24017, 114.46185, 117.24017, 122.8017, " y="468.19675, ">
			Cabo USB-C 2m
	</text>
	<text font-size="10" font-family="Arial" x="326.07047, " y="468.19675, ">
			5
	</text>
	<text font-size="10" font-family="Arial" x="376.07806, 383.29974, 388.86127, 391.63959, 397.20111, 402.76263, 405.54095, 411.10248, " y="468.19675, ">
			R$ 45,00
	</text>
	<text font-size="10" font-family="Arial" x="455.54852, 462.7702, 468.33173, 471.11005, 476.67157, 482.23309, 487.79462, 490.57294, 496.13446, " y="468.19675, ">
			R$ 225,00
	</text>
	<text fill="gray" font-size="8" font-family="Arial" x="519.8764, 525.21234, 529.66156, 534.11078, " y="466.3862, ">
			Pago
	</text>
	<path fill="none" stroke="black" stroke-width="0.21600001" stroke-miterlimit="4" d="M56.664 476.136L538.56 476.136"/>
	<text font-size="10" font-weight="600" font-family="Arial" x="437.96918, 444.6391, 450.7475, 456.8559, 460.18597, 466.29437, 469.62445, 475.18597, 477.96429, 481.29437, 484.07269, 491.29437, 496.8559, 499.63422, 505.19574, 507.97406, 513.53558, 519.09711, 524.65863, 527.43695, 532.99847, " y="487.99673, ">
			Subtotal: R$ 1.725,00
	</text>
	<text fill="#C2410C" font-size="11" font-weight="600" font-family="Arial" x="56.664001, 64.607849, 67.664001, 70.720154, 76.83783, 83.557068, 87.220154, 93.33783, 97.000916, 100.05707, 106.77631, 112.89398, 119.61322, 122.66937, 129.38861, 132.44476, 140.38861, 143.44476, 153.22552, 159.3432, 162.39935, 169.11859, " y="514.46204, ">
			Cliente: Fábio Almeida
	</text>
	<text font-size="10" font-family="Arial" x="56.664001, 63.885681, 69.447205, 72.225525, 77.787048, 83.348572, 88.910095, 94.471619, 97.801697, 100.58002, 110.01849, 112.24017, 115.57025, 121.67865, 123.90033, 126.67865, " y="536.23676, ">
			Roteador Wi-Fi 6
	</text>
	<text font-size="10" font-family="Arial" x="326.07047, " y="536.23676, ">
			1
	</text>
	<text font-size="10" font-family="Arial" x="362.1767, 369.39838, 374.9599, 377.73822, 383.29974, 386.07806, 391.63959, 397.20111, 402.76263, 405.54095, 411.10248, " y="536.23676, ">
			R$ 1.400,00
	</text>
	<text font-size="10" font-family="Arial" x="447.20868, 454.43036, 459.99188, 462.7702, 468.33173, 471.11005, 476.67157, 482.23309, 487.79462, 490.57294, 496.13446, " y="536.23676, ">
			R$ 1.400,00
	</text>
	<text fill="gray" font-size="8" font-family="Arial" x="519.8764, 525.21234, 529.66156, 534.11078, " y="534.42621, ">
			Pago
	</text>
	<path fill="none" stroke="black" stroke-width="0.21600001" stroke-miterlimit="4" d="M56.664 544.176L538.56 544.176"/>
	<text font-size="10" font-weight="600" font-family="Arial" x="437.96918, 444.6391, 450.7475, 456.8559, 460.18597, 466.29437, 469.62445, 475.18597, 477.96429, 481.29437, 484.07269, 491.29437, 496.8559, 499.63422, 505.19574, 507.97406, 513.53558, 519.09711, 524.65863, 527.43695, 532.99847, " y="556.03674, ">
			Subtotal: R$ 1.400,00
	</text>
	<path fill="none" stroke="black" stroke-width="0.50400001" stroke-miterlimit="4" d="M56.664 566.856L538.56 566.856"/>
	<text font-size="11" font-weight="600" font-family="Arial" x="410.164, 416.88324, 423.60248, 427.26556, 433.38324, 436.43939, 439.49554, 446.21478, 452.33246, 456.61322, 462.7309, 465.78705, 469.45013, 472.50629, 480.45013, 486.56781, 489.62396, 495.74164, 501.85931, 504.91547, 511.03314, 517.15082, 523.26849, 526.32465, 532.44232, " y="582.50201, ">
			Total geral: R$ 18.585,00
	</text>
	<text fill="gray" font-size="10" font-family="Arial" x="414.04828, 421.8266, 430.15668, 435.7182, 437.93988, 445.16156, 450.72308, 456.28461, 461.84613, 465.17621, 467.95453, 470.73285, 474.06293, 476.84125, 483.51117, 489.07269, 494.63422, 496.8559, 502.41742, 507.97894, 510.75726, 516.31879, 519.09711, 524.65863, 530.22015, 532.99847, " y="774.41272, ">
			OmniReport · Página 1 de 1
	</text>
</svg>
