<?xml version="1.0" encoding="UTF-8"?>
<svg xmlns="http://www.w3.org/2000/svg" xmlns:xlink="http://www.w3.org/1999/xlink" viewBox="0 0 595.296 841.896" width="100%" height="100%" preserveAspectRatio="xMidYMid meet">
	<rect fill="white" width="595.29602" height="841.896"/>
	<text font-size="18" font-weight="600" font-family="Arial" x="179.64606, 193.64703, 209.65192, 220.64703, 225.64801, 238.64703, 248.65778, 259.65289, 270.64801, 277.65289, 283.64703, 288.64801, 301.64703, 306.64801, 317.64313, 328.63824, 333.63922, 339.63336, 344.63434, 357.63336, 367.6441, 377.65485, 388.64996, 404.65485, " y="67.342926, ">
			OmniReport Blog · Resumo
	</text>
	<text fill="gray" font-size="10" font-family="Arial" x="211.22223, 216.78375, 219.56207, 225.1236, 227.34528, 230.1236, 232.34528, 240.67535, 246.23688, 251.23688, 254.0152, 259.57672, 265.13824, 270.13824, 272.91656, 277.91656, 280.69489, 284.02496, 286.80328, 292.91168, 298.47321, 304.03473, 306.81305, 312.37457, 315.15289, 317.93121, 320.70953, 326.27106, 331.83258, 337.3941, 340.17242, 347.3941, 354.06403, 360.73395, 363.51227, 370.18219, 378.51227, " y="105.46073, ">
			5 últimos posts · Fonte: feed RSS XML
	</text>
	<path fill="none" stroke="black" stroke-width="0.50400001" stroke-miterlimit="4" d="M51.048 124.776L544.248 124.776"/>
	<text fill="#C2410C" font-size="11" font-weight="600" font-family="Arial" x="51.048, 58.384914, 65.104156, 71.823395, 74.879547, 81.598785, 87.716461, 90.772614, 99.328766, 109.10953, 115.82877, 118.88492, 126.82877, 132.94644, 139.66568, 146.38492, 150.66568, " y="154.53401, ">
			Equipe OmniReport
	</text>
	<text font-size="10" font-weight="600" font-family="Arial" x="62.352001, 69.573685, 75.135208, 80.696732, 83.475052, 89.58345, 95.691849, 101.25337, 105.14497, 107.92329, 115.14497, 117.92329, 121.25337, 124.03169, 130.70161, 134.59322, 140.70161, 146.81001, 152.37154, 156.26314, 159.59322, 165.15474, 172.93306, 176.82466, 179.60298, 185.71138, 188.4897, 194.05122, 200.15962, 209.05122, 215.15962, 217.93794, 223.49947, 226.82954, 232.93794, 235.71626, 241.82466, 247.38618, 251.27779, 256.83929, 259.61761, 266.83929, 272.40082, 275.7309, 278.50922, 284.61761, 290.72601, 296.28754, 299.06586, 306.28754, 312.39594, 318.50433, 324.06586, 332.95746, 338.51898, 342.41058, 347.97211, " y="173.50073, ">
			Designer UI: PropertyGrid completo para Actions/Bookmarks
	</text>
	<text fill="gray" font-size="8" font-style="italic" font-family="Arial" x="62.352001, 68.129349, 73.465286, 75.687943, 78.352005, 80.574661, 85.02388, 89.473099, 91.695755, 96.144974, 100.59419, 102.81685, 107.26607, 111.71529, 116.16451, " y="188.68219, ">
			UX · 26/05/2026
	</text>
	<text fill="#2563EB" font-size="7" font-family="Arial" x="384.34174, 388.2348, 390.17963, 392.12445, 396.01752, 399.51752, 401.46234, 403.40717, 405.35199, 409.24506, 415.07611, 418.96918, 420.52435, 422.85541, 426.74847, 430.64154, 434.53461, 436.86566, 438.81049, 440.75531, 444.64838, 448.14838, 452.04144, 457.8725, 461.76556, 463.32074, 467.21381, 469.15863, 472.65863, 476.5517, 482.38275, 484.32758, 488.22064, 489.77582, 493.66888, 497.56195, 499.50677, 503.39984, 507.29291, 510.79291, 512.34808, 516.24115, 520.13422, 524.02728, 526.35834, 528.68939, 531.02045, 534.91351, 536.46869, 538.79974, 542.69281, " y="187.77692, ">
			https://omnireport.example.com/blog/designer-rdl-ui
	</text>
	<path fill="none" stroke="black" stroke-width="0.14399999" stroke-miterlimit="4" d="M62.352 198.432L532.944 198.432"/>
	<text fill="#C2410C" font-size="11" font-weight="600" font-family="Arial" x="51.048, 58.991848, 65.71109, 72.430328, 78.548004, 82.828766, 88.946442, 95.66568, 102.38492, 105.44107, 112.16031, 118.27798, 122.55875, 129.27798, 135.39566, 142.1149, 148.83414, 154.95181, " y="216.886, ">
			Anderson Fernandes
	</text>
	<text font-size="10" font-weight="600" font-family="Arial" x="62.352001, 67.913528, 70.691849, 76.800247, 82.908646, 88.470169, 94.578568, 100.14009, 102.91841, 109.02681, 114.58833, 117.91841, 123.47993, 126.25826, 132.36665, 136.25826, 142.36665, 147.92818, 150.7065, 156.8149, 162.37642, 166.26802, 171.82954, 174.60786, 177.93794, 183.49947, 190.16939, 197.94771, 205.16939, 207.94771, 210.72603, 217.39595, 225.72603, 231.83443, 234.61275, 237.39107, 244.61275, 251.28267, 257.95258, 264.06097, 266.83929, 269.61761, 275.72601, 282.39594, " y="235.85274, ">
			4 novos data providers (JSON, XML, REST, FS)
	</text>
	<text fill="gray" font-size="8" font-style="italic" font-family="Arial" x="62.352001, 68.129349, 72.578568, 74.355911, 78.80513, 83.254349, 87.254349, 91.703568, 93.926224, 96.590286, 98.812943, 103.26216, 107.71138, 109.93404, 114.38326, 118.83247, 121.05513, 125.50435, 129.95357, 134.40279, " y="251.03419, ">
			Release · 26/05/2026
	</text>
	<text fill="#2563EB" font-size="7" font-family="Arial" x="400.2934, 404.18646, 406.13129, 408.07611, 411.96918, 415.46918, 417.414, 419.35883, 421.30365, 425.19672, 431.02777, 434.92084, 436.47601, 438.80707, 442.70013, 446.5932, 450.48627, 452.81732, 454.76215, 456.70697, 460.60004, 464.10004, 467.9931, 473.82416, 477.71722, 479.2724, 483.16547, 485.11029, 488.61029, 492.50336, 498.33441, 500.27924, 504.1723, 505.72748, 509.62054, 513.51361, 515.45844, 519.3515, 521.68256, 525.57562, 529.07562, 530.6308, 534.52386, 538.41693, 540.74799, " y="250.12892, ">
			https://omnireport.example.com/blog/providers
	</text>
	<path fill="none" stroke="black" stroke-width="0.14399999" stroke-miterlimit="4" d="M62.352 260.784L532.944 260.784"/>
	<text font-size="10" font-weight="600" font-family="Arial" x="62.352001, 69.573685, 76.795364, 82.903763, 85.682083, 92.352005, 98.460403, 104.02193, 109.58345, 115.14497, 117.92329, 123.48482, 126.26314, 129.04146, 134.60298, 140.71138, 146.2729, 151.83443, 157.94283, " y="275.52472, ">
			RDL Phase 1 lançada
	</text>
	<text fill="gray" font-size="8" font-style="italic" font-family="Arial" x="62.352001, 68.129349, 72.578568, 74.355911, 78.80513, 83.254349, 87.254349, 91.703568, 93.926224, 96.590286, 98.812943, 103.26216, 107.71138, 109.93404, 114.38326, 118.83247, 121.05513, 125.50435, 129.95357, 134.40279, " y="290.70618, ">
			Release · 25/05/2026
	</text>
	<text fill="#2563EB" font-size="7" font-family="Arial" x="393.67621, 397.56927, 399.5141, 401.45892, 405.35199, 408.85199, 410.79681, 412.74164, 414.68646, 418.57953, 424.41058, 428.30365, 429.85883, 432.18988, 436.08295, 439.97601, 443.86908, 446.20013, 448.14496, 450.08978, 453.98285, 457.48285, 461.37592, 467.20697, 471.10004, 472.65521, 476.54828, 478.4931, 481.9931, 485.88617, 491.71722, 493.66205, 497.55511, 499.11029, 503.00336, 506.89642, 508.84125, 511.1723, 515.06537, 516.62054, 518.9516, 522.84467, 526.73773, 530.6308, 534.1308, 538.02386, 540.35492, " y="289.8009, ">
			https://omnireport.example.com/blog/rdl-phase-1
	</text>
	<path fill="none" stroke="black" stroke-width="0.14399999" stroke-miterlimit="4" d="M62.352 300.456L532.944 300.456"/>
	<text fill="#C2410C" font-size="11" font-weight="600" font-family="Arial" x="51.048, 58.384914, 65.104156, 71.823395, 74.879547, 81.598785, 87.716461, 90.772614, 99.328766, 109.10953, 115.82877, 118.88492, 126.82877, 132.94644, 139.66568, 146.38492, 150.66568, " y="318.91, ">
			Equipe OmniReport
	</text>
	<text font-size="10" font-weight="600" font-family="Arial" x="62.352001, 69.021927, 72.913528, 75.691849, 81.800247, 85.130325, 87.908646, 94.017044, 97.908646, 104.01704, 107.34712, 110.12544, 115.68697, 121.24849, 124.02681, 130.13521, 136.24361, 141.80513, 144.58345, 147.36177, 152.92329, 156.8149, 162.92329, 168.48482, 174.04634, 177.37642, 183.48482, 186.26314, 191.82466, 195.15474, 198.48482, 204.59322, 208.48482, " y="337.87674, ">
			Print profissional cross-platform
	</text>
	<text fill="gray" font-size="8" font-style="italic" font-family="Arial" x="62.352001, 67.687943, 70.352005, 72.129349, 76.578568, 78.801224, 81.02388, 83.687943, 85.910599, 90.359818, 94.809036, 97.031693, 101.48091, 105.93013, 108.15279, 112.60201, 117.05122, 121.50044, " y="353.0582, ">
			Print · 20/05/2026
	</text>
	<text fill="#2563EB" font-size="7" font-family="Arial" x="406.12445, 410.01752, 411.96234, 413.90717, 417.80023, 421.30023, 423.24506, 425.18988, 427.1347, 431.02777, 436.85883, 440.75189, 442.30707, 444.63812, 448.53119, 452.42426, 456.31732, 458.64838, 460.5932, 462.53802, 466.43109, 469.93109, 473.82416, 479.65521, 483.54828, 485.10345, 488.99652, 490.94135, 494.44135, 498.33441, 504.16547, 506.11029, 510.00336, 511.55853, 515.4516, 519.34467, 521.28949, 525.18256, 527.51361, 529.06879, 532.96185, 534.90668, 536.46185, 540.35492, " y="352.15292, ">
			https://omnireport.example.com/blog/printing
	</text>
	<path fill="none" stroke="black" stroke-width="0.14399999" stroke-miterlimit="4" d="M62.352 362.808L532.944 362.808"/>
	<text fill="#C2410C" font-size="11" font-weight="600" font-family="Arial" x="51.048, 58.991848, 65.71109, 72.430328, 78.548004, 82.828766, 88.946442, 95.66568, 102.38492, 105.44107, 112.16031, 118.27798, 122.55875, 129.27798, 135.39566, 142.1149, 148.83414, 154.95181, " y="381.26199, ">
			Anderson Fernandes
	</text>
	<text font-size="10" font-weight="600" font-family="Arial" x="62.352001, 68.460403, 74.568802, 77.89888, 84.007278, 87.89888, 90.6772, 96.238724, 99.017044, 102.34712, 105.12544, 111.23384, 116.79536, 122.35689, 128.46529, 134.57368, 140.68208, 143.4604, 149.5688, 152.34712, 159.01704, 164.57857, 170.68697, 174.57857, 180.14009, 185.70161, 191.26314, 194.04146, 200.14986, 206.25826, 209.03658, 215.7065, 221.8149, 224.59322, 227.92329, 234.03169, 237.92329, 240.70161, 246.26314, 252.37154, 261.26312, 264.04144, 272.37152, 278.47992, 284.58832, 290.14984, 295.71136, " y="400.22873, ">
			Tutorial: usando o Expression Editor com Monaco
	</text>
	<text fill="gray" font-size="8" font-style="italic" font-family="Arial" x="62.352001, 67.238724, 71.687943, 73.910599, 78.359818, 81.02388, 82.801224, 87.250443, 89.027786, 91.250443, 93.914505, 96.137161, 100.58638, 105.0356, 107.25826, 111.70747, 116.15669, 118.37935, 122.82857, 127.27779, 131.72701, " y="415.41019, ">
			Tutorial · 18/05/2026
	</text>
	<text fill="#2563EB" font-size="7" font-family="Arial" x="375.39008, 379.28314, 381.22797, 383.17279, 387.06586, 390.56586, 392.51068, 394.45551, 396.40033, 400.2934, 406.12445, 410.01752, 411.57269, 413.90375, 417.79681, 421.68988, 425.58295, 427.914, 429.85883, 431.80365, 435.69672, 439.19672, 443.08978, 448.92084, 452.8139, 454.36908, 458.26215, 460.20697, 463.70697, 467.60004, 473.43109, 475.37592, 479.26898, 480.82416, 484.71722, 488.61029, 490.55511, 494.44818, 497.94818, 501.84125, 504.1723, 508.06537, 511.56537, 515.06537, 516.62054, 520.51361, 524.40668, 526.73773, 530.6308, 534.52386, 536.07904, 538.02386, 541.91693, " y="414.50491, ">
			https://omnireport.example.com/blog/expression-editor
	</text>
	<path fill="none" stroke="black" stroke-width="0.14399999" stroke-miterlimit="4" d="M62.352 425.16L532.944 425.16"/>
	<text fill="gray" font-size="10" font-family="Arial" x="419.73627, 427.51459, 435.84467, 441.40619, 443.62787, 450.84955, 456.41107, 461.9726, 467.53412, 470.8642, 473.64252, 476.42084, 479.75092, 482.52924, 489.19916, 494.76068, 500.3222, 502.54388, 508.10541, 513.66693, 516.44525, 522.00677, 524.7851, 530.34662, 535.90814, 538.68646, " y="782.90875, ">
			OmniReport · Página 1 de 1
	</text>
</svg>
