<?xml version="1.0" encoding="UTF-8"?>
<svg xmlns="http://www.w3.org/2000/svg" xmlns:xlink="http://www.w3.org/1999/xlink" viewBox="0 0 595.296 841.896" width="100%" height="100%" preserveAspectRatio="xMidYMid meet">
	<rect fill="white" width="595.29602" height="841.896"/>
	<text font-size="16" font-weight="600" font-family="Arial" x="162.09332, 173.64801, 182.54645, 187.87457, 196.77301, 201.21832, 210.99176, 220.7652, 230.53864, 234.98395, 244.75739, 253.65582, 258.10114, 268.77301, 274.99957, 284.77301, 294.54645, 304.31989, 309.64801, 319.42145, 328.31989, 332.7652, 338.09332, 342.53864, 352.31207, 362.08551, 371.85895, 377.18707, 386.08551, 390.53082, 402.08551, 412.75739, 423.42926, " y="65.532379, ">
			Catálogo de Produtos · Fonte REST
	</text>
	<text fill="gray" font-size="10" font-family="Arial" x="134.24469, 142.02301, 145.35309, 147.57477, 153.13629, 158.69781, 167.02789, 169.80621, 172.58453, 180.36285, 187.03278, 193.14117, 195.91949, 201.48102, 204.25934, 207.03766, 212.59918, 217.59918, 220.3775, 223.15582, 225.93414, 231.49567, 237.05719, 239.27887, 242.05719, 247.61871, 253.18024, 261.51031, 267.07184, 269.85016, 275.41168, 278.74176, 284.30328, 289.86481, 295.42633, 298.20465, 303.76617, 308.76617, 311.54449, 314.87457, 317.65289, 324.32281, 329.88434, 335.44586, 338.77594, 344.33746, 347.66754, 350.44586, 356.00739, 361.56891, 369.89899, 375.46051, 378.79059, 381.56891, 387.13043, 392.13043, 397.69196, 403.25348, 406.0318, 409.36188, 412.1402, 417.70172, 423.26324, 426.04156, 431.60309, 434.38141, 437.15973, 439.38141, 442.15973, 447.72125, 456.05133, " y="99.772736, ">
			Origem: GET https://api.demo/produtos · Bearer demo-token · path: items
	</text>
	<path fill="none" stroke="black" stroke-width="0.50400001" stroke-miterlimit="4" d="M51.048 113.4L544.248 113.4"/>
	<text font-size="10" font-weight="600" font-family="Arial" x="51.048, 57.717922, 64.939606, " y="139.44473, ">
			SKU
	</text>
	<text font-size="10" font-weight="600" font-family="Arial" x="119.088, 125.75792, 129.64952, 135.75792, 141.86632, 147.97472, 151.30479, " y="139.44473, ">
			Produto
	</text>
	<text font-size="10" font-weight="600" font-family="Arial" x="391.75104, 398.42096, 402.31256, 407.87408, 413.43561, " y="139.44473, ">
			Preço
	</text>
	<text font-size="10" font-weight="600" font-family="Arial" x="442.44775, 449.11768, 454.6792, 458.00928, 464.11768, 470.22607, 476.33447, " y="139.44473, ">
			Estoque
	</text>
	<text font-size="10" font-family="Segoe UI Symbol" x="535.91797, " y="139.44473, ">
			★
	</text>
	<path fill="none" stroke="black" stroke-width="0.21600001" stroke-miterlimit="4" d="M51.048 147.384L544.248 147.384"/>
	<text fill="#C2410C" font-size="11" font-weight="600" font-family="Arial" x="51.048, 58.991848, 65.109528, 71.227203, 77.344879, 83.462555, 90.181793, 94.462555, 97.518707, 104.23795, " y="165.83801, ">
			Acessórios
	</text>
	<text font-size="9" font-family="Arial" x="51.048, 57.05093, 63.05386, 69.553375, 72.550446, 77.555817, 82.561188, " y="183.89946, ">
			SKU-002
	</text>
	<text font-size="10" font-family="Arial" x="119.088, 127.41808, 132.9796, 138.54112, 143.54112, 149.10265, 151.88097, 157.44249, 163.00401, 168.56554, 170.78722, 173.56554, 179.12706, 184.12706, 189.68858, 192.4669, 200.79698, 207.4669, 210.24522, 218.5753, 224.13683, 229.13683, 231.91515, 237.47667, " y="184.80473, ">
			Mouse Logitech MX Master
	</text>
	<text font-size="10" font-family="Arial" x="373.39655, 380.61823, 386.17975, 388.95807, 394.51959, 400.08112, 405.64264, 408.42096, 413.98248, " y="184.80473, ">
			R$ 449,90
	</text>
	<text font-size="10" font-family="Arial" x="470.77295, 476.33447, " y="184.80473, ">
			23
	</text>
	<text font-size="10" font-family="Arial" x="530.34668, 535.9082, 538.68652, " y="184.80473, ">
			4,8
	</text>
	<text font-size="9" font-family="Arial" x="51.048, 57.05093, 63.05386, 69.553375, 72.550446, 77.555817, 82.561188, " y="200.89146, ">
			SKU-003
	</text>
	<text font-size="10" font-family="Arial" x="119.088, 125.1964, 130.75792, 135.75792, 137.9796, 143.54112, 149.10265, 154.66417, 157.44249, 164.11241, 169.67393, 174.67393, 179.67393, 185.23546, 188.56554, 194.12706, 199.68858, 202.4669, 209.13683, " y="201.79674, ">
			Teclado Keychron K2
	</text>
	<text font-size="10" font-family="Arial" x="373.39655, 380.61823, 386.17975, 388.95807, 394.51959, 400.08112, 405.64264, 408.42096, 413.98248, " y="201.79674, ">
			R$ 890,00
	</text>
	<text font-size="10" font-family="Arial" x="470.77295, 476.33447, " y="201.79674, ">
			15
	</text>
	<text font-size="10" font-family="Arial" x="530.34668, 535.9082, 538.68652, " y="201.79674, ">
			4,7
	</text>
	<text font-size="9" font-family="Arial" x="51.048, 57.05093, 63.05386, 69.553375, 72.550446, 77.555817, 82.561188, " y="217.88345, ">
			SKU-007
	</text>
	<text font-size="10" font-family="Arial" x="119.088, 128.52647, 134.088, 139.64952, 144.64952, 150.21104, 158.54112, 161.31944, 166.88097, 172.44249, 178.00401, 180.22569, 183.00401, 188.56554, 193.56554, 199.12706, 201.90538, 208.5753, 211.90538, 214.12706, " y="218.78873, ">
			Webcam Logitech Brio
	</text>
	<text font-size="10" font-family="Arial" x="373.39655, 380.61823, 386.17975, 388.95807, 394.51959, 400.08112, 405.64264, 408.42096, 413.98248, " y="218.78873, ">
			R$ 990,00
	</text>
	<text font-size="10" font-family="Arial" x="476.33447, " y="218.78873, ">
			6
	</text>
	<text font-size="10" font-family="Arial" x="530.34668, 535.9082, 538.68652, " y="218.78873, ">
			4,4
	</text>
	<text fill="#C2410C" font-size="11" font-weight="600" font-family="Arial" x="51.048, 58.991848, 65.71109, 72.430328, 75.486481, " y="239.494, ">
			Áudio
	</text>
	<text font-size="9" font-family="Arial" x="51.048, 57.05093, 63.05386, 69.553375, 72.550446, 77.555817, 82.561188, " y="257.55548, ">
			SKU-005
	</text>
	<text font-size="10" font-family="Arial" x="119.088, 126.30968, 131.8712, 137.43272, 142.99425, 147.99425, 153.55577, 156.33409, 159.11241, 165.78233, 171.34386, 176.90538, 181.90538, 184.6837, 194.12218, 201.34386, 204.67393, 210.23546, 215.79698, 221.35851, 226.92003, 233.58995, 241.92003, " y="258.46075, ">
			Headset Sony WH-1000XM5
	</text>
	<text font-size="10" font-family="Arial" x="365.0567, 372.27838, 377.8399, 380.61823, 386.17975, 388.95807, 394.51959, 400.08112, 405.64264, 408.42096, 413.98248, " y="258.46075, ">
			R$ 2.890,00
	</text>
	<text font-size="10" font-family="Arial" x="470.77295, 476.33447, " y="258.46075, ">
			12
	</text>
	<text font-size="10" font-family="Arial" x="530.34668, 535.9082, 538.68652, " y="258.46075, ">
			4,9
	</text>
	<text fill="#C2410C" font-size="11" font-weight="600" font-family="Arial" x="51.048, 57.767239, 63.884914, 70.604156, 74.267242, 80.986481, 87.705719, " y="279.16602, ">
			Laptops
	</text>
	<text font-size="9" font-family="Arial" x="51.048, 57.05093, 63.05386, 69.553375, 72.550446, 77.555817, 82.561188, " y="297.22745, ">
			SKU-001
	</text>
	<text font-size="10" font-family="Arial" x="119.088, 126.30968, 131.8712, 134.64952, 140.21104, 145.77257, 151.33409, 156.89561, 161.89561, 164.67393, 171.89561, 177.45714, 179.67882, 181.9005, 184.67882, 191.34874, 198.01866, 204.68858, 207.4669, 213.02843, " y="298.13272, ">
			Notebook Dell XPS 13
	</text>
	<text font-size="10" font-family="Arial" x="365.0567, 372.27838, 377.8399, 380.61823, 386.17975, 388.95807, 394.51959, 400.08112, 405.64264, 408.42096, 413.98248, " y="298.13272, ">
			R$ 9.500,00
	</text>
	<text font-size="10" font-family="Arial" x="476.33447, " y="298.13272, ">
			4
	</text>
	<text font-size="10" font-family="Arial" x="530.34668, 535.9082, 538.68652, " y="298.13272, ">
			4,6
	</text>
	<text fill="#C2410C" font-size="11" font-weight="600" font-family="Arial" x="51.048, 60.211086, 66.930328, 73.649567, 76.705719, 80.368805, 87.088043, 91.368805, 97.486481, " y="318.83801, ">
			Monitores
	</text>
	<text font-size="9" font-family="Arial" x="51.048, 57.05093, 63.05386, 69.553375, 72.550446, 77.555817, 82.561188, " y="336.89948, ">
			SKU-004
	</text>
	<text font-size="10" font-family="Arial" x="119.088, 127.41808, 132.9796, 138.54112, 140.7628, 143.54112, 149.10265, 152.43272, 155.21104, 160.77257, 168.55089, 171.32921, 176.89073, 182.45226, 185.23058, 192.45226, 194.67393, 197.45226, 200.78233, 206.34386, 212.45226, 214.67393, 220.23546, " y="337.80475, ">
			Monitor LG 27 UltraFine
	</text>
	<text font-size="10" font-family="Arial" x="365.0567, 372.27838, 377.8399, 380.61823, 386.17975, 388.95807, 394.51959, 400.08112, 405.64264, 408.42096, 413.98248, " y="337.80475, ">
			R$ 3.290,00
	</text>
	<text font-size="10" font-family="Arial" x="476.33447, " y="337.80475, ">
			8
	</text>
	<text font-size="10" font-family="Arial" x="530.34668, 535.9082, 538.68652, " y="337.80475, ">
			4,5
	</text>
	<text fill="#C2410C" font-size="11" font-weight="600" font-family="Arial" x="51.048, 58.384914, 62.048, 68.767242, 73.048004, 79.16568, 85.884918, " y="358.51001, ">
			Storage
	</text>
	<text font-size="9" font-family="Arial" x="51.048, 57.05093, 63.05386, 69.553375, 72.550446, 77.555817, 82.561188, " y="376.57147, ">
			SKU-006
	</text>
	<text font-size="10" font-family="Arial" x="119.088, 125.75792, 132.42784, 139.64952, 142.42784, 149.09776, 154.65929, 162.98936, 167.98936, 173.55089, 179.11241, 184.67393, 187.45226, 193.01378, 198.5753, 204.13683, 206.91515, 213.58507, 220.80675, 228.58507, 231.36339, 236.92491, 243.03331, " y="377.47675, ">
			SSD Samsung 980 PRO 1TB
	</text>
	<text font-size="10" font-family="Arial" x="373.39655, 380.61823, 386.17975, 388.95807, 394.51959, 400.08112, 405.64264, 408.42096, 413.98248, " y="377.47675, ">
			R$ 799,00
	</text>
	<text font-size="10" font-family="Arial" x="470.77295, 476.33447, " y="377.47675, ">
			18
	</text>
	<text font-size="10" font-family="Arial" x="530.34668, 535.9082, 538.68652, " y="377.47675, ">
			4,8
	</text>
	<path fill="none" stroke="black" stroke-width="0.50400001" stroke-miterlimit="4" d="M51.048 385.416L544.248 385.416"/>
	<text font-size="10" font-weight="600" font-family="Arial" x="419.7851, 422.56342, 425.89349, 431.45502, 437.56342, 443.12494, 446.45502, 449.23334, 454.79486, 457.57318, 460.90326, 463.68158, 470.3515, 475.91302, 479.2431, 485.3515, 491.4599, 497.5683, 503.12982, 505.90814, 509.23822, 515.34662, 518.6767, 524.23822, 527.01654, 530.34662, 533.12494, 538.68646, " y="400.15674, ">
			Itens: 7 · Estoque total: 86
	</text>
	<text fill="gray" font-size="10" font-family="Arial" x="419.73627, 427.51459, 435.84467, 441.40619, 443.62787, 450.84955, 456.41107, 461.9726, 467.53412, 470.8642, 473.64252, 476.42084, 479.75092, 482.52924, 489.19916, 494.76068, 500.3222, 502.54388, 508.10541, 513.66693, 516.44525, 522.00677, 524.7851, 530.34662, 535.90814, 538.68646, " y="782.90875, ">
			OmniReport · Página 1 de 1
	</text>
</svg>
