<?xml version="1.0" encoding="UTF-8"?>
<svg xmlns="http://www.w3.org/2000/svg" xmlns:xlink="http://www.w3.org/1999/xlink" viewBox="0 0 595.296 841.896" width="100%" height="100%" preserveAspectRatio="xMidYMid meet">
	<rect fill="white" width="595.29602" height="841.896"/>
	<text font-size="16" font-weight="600" font-family="Arial" x="168.75348, 179.42535, 188.32379, 198.09723, 207.87067, 216.7691, 225.66754, 230.11285, 235.44098, 239.88629, 249.65973, 259.43317, 269.2066, 274.53473, 283.43317, 287.87848, 298.55035, 310.99567, 320.7691, 325.21442, 330.54254, 339.44098, 343.88629, 349.21442, 360.7691, 372.32379, 384.7691, 389.21442, 400.7691, 411.44098, 421.21442, " y="65.532379, ">
			Vendas · Fonte SQLite (ADO.NET)
	</text>
	<text fill="gray" font-size="10" font-family="Arial" x="221.74957, 228.41949, 233.98102, 237.3111, 240.08942, 245.65094, 251.21246, 256.77399, 259.55231, 262.33063, 267.89215, 273.45367, 276.23199, 281.79352, 287.35504, 290.13336, 295.69489, 301.25641, 306.81793, 312.37946, 315.15778, 320.7193, 323.49762, 329.05914, 334.62067, 337.39899, 342.96051, 348.52203, 351.30035, 356.86188, 362.4234, 367.98492, " y="99.772736, ">
			Período: 01/05/2026 a 31/05/2026
	</text>
	<path fill="none" stroke="black" stroke-width="0.50400001" stroke-miterlimit="4" d="M51.048 113.4L544.248 113.4"/>
	<text font-size="10" font-weight="600" font-family="Arial" x="51.048, 57.717922, 61.609524, 67.717926, 73.826324, 79.934723, 83.264801, " y="139.44473, ">
			Produto
	</text>
	<text font-size="10" font-weight="600" font-family="Arial" x="317.34967, 325.12799, 328.45807, 334.56647, " y="139.44473, ">
			Qtde
	</text>
	<text font-size="10" font-weight="600" font-family="Arial" x="362.49841, 369.16833, 373.05994, 378.62146, 384.18298, 390.29138, 393.0697, 400.29138, 406.39978, 409.1781, 412.50818, 418.0697, 421.9613, 424.73962, " y="139.44473, ">
			Preço Unitário
	</text>
	<text font-size="10" font-weight="600" font-family="Arial" x="509.05731, 515.16571, 521.27411, 524.60419, 530.16571, " y="139.44473, ">
			Total
	</text>
	<path fill="none" stroke="black" stroke-width="0.21600001" stroke-miterlimit="4" d="M51.048 147.384L544.248 147.384"/>
	<text fill="#C2410C" font-size="11" font-weight="600" font-family="Arial" x="51.048, 58.991848, 62.048, 65.104156, 71.221832, 77.941071, 81.604156, 87.721832, 91.384918, 94.441071, 102.38492, 109.10416, 115.22183, 118.27798, 126.22183, 132.33951, 138.45718, 142.12027, 146.40103, 149.45718, " y="168.718, ">
			Cliente: Ana Beatriz
	</text>
	<text font-size="10" font-family="Arial" x="51.048, 58.26968, 63.831203, 69.392731, 74.954254, 77.732574, 83.294098, 86.072418, 92.74234, 94.96402, 99.96402, 102.74234, 109.41226, 114.41226, 119.97379, " y="190.49274, ">
			Caneta Bic Azul
	</text>
	<text font-size="10" font-family="Arial" x="315.10358, 320.6651, 326.22662, 329.00494, 334.56647, " y="190.49274, ">
			10,00
	</text>
	<text font-size="10" font-family="Arial" x="395.82361, 403.04529, 408.60681, 411.38513, 416.94666, 419.72498, 425.2865, " y="190.49274, ">
			R$ 2,50
	</text>
	<text font-size="10" font-family="Arial" x="492.35809, 499.57977, 505.1413, 507.91962, 513.48114, 519.04266, 521.82098, 527.38251, " y="190.49274, ">
			R$ 25,00
	</text>
	<text font-size="10" font-family="Arial" x="51.048, 58.26968, 63.831203, 69.392731, 74.954254, 78.284332, 83.845856, 89.407379, 92.185699, 98.855621, 102.1857, 107.74722, 112.74722, 118.30875, 123.87027, 127.20035, " y="207.48474, ">
			Caderno Brochura
	</text>
	<text font-size="10" font-family="Arial" x="320.6651, 326.22662, 329.00494, 334.56647, " y="207.48474, ">
			1,00
	</text>
	<text font-size="10" font-family="Arial" x="390.26208, 397.48376, 403.04529, 405.82361, 411.38513, 416.94666, 419.72498, 425.2865, " y="207.48474, ">
			R$ 27,40
	</text>
	<text font-size="10" font-family="Arial" x="492.35809, 499.57977, 505.1413, 507.91962, 513.48114, 519.04266, 521.82098, 527.38251, " y="207.48474, ">
			R$ 27,40
	</text>
	<path fill="none" stroke="black" stroke-width="0.21600001" stroke-miterlimit="4" d="M51.048 215.424L544.248 215.424"/>
	<text font-size="10" font-weight="600" font-family="Arial" x="399.76556, 406.43549, 412.54388, 418.65228, 421.98236, 428.09076, 431.42084, 436.98236, 439.76068, 442.539, 449.76068, 455.86908, 461.4306, 464.20892, 471.4306, 476.99213, 482.55365, 485.88373, 489.77533, 492.55365, 497.55365, 500.88373, 503.66205, 510.88373, 516.44525, 519.22357, 524.7851, 530.34662, 533.12494, 538.68646, " y="227.28473, ">
			Subtotal Ana Beatriz: R$ 52,40
	</text>
	<text fill="#C2410C" font-size="11" font-weight="600" font-family="Arial" x="51.048, 58.991848, 62.048, 65.104156, 71.221832, 77.941071, 81.604156, 87.721832, 91.384918, 94.441071, 102.38492, 106.66568, 113.38492, 120.10416, 126.82339, 129.87955, 137.82339, 144.54263, 150.66031, 154.32339, " y="253.75002, ">
			Cliente: Bruno Costa
	</text>
	<text font-size="10" font-family="Arial" x="51.048, 57.717922, 63.279446, 68.279449, 71.05777, 76.619293, 79.397614, 86.619293, 92.180817, 94.959137, 100.52066, 102.74234, 108.30386, 113.86539, " y="275.52472, ">
			Pasta Catálogo
	</text>
	<text font-size="10" font-family="Arial" x="320.6651, 326.22662, 329.00494, 334.56647, " y="275.52472, ">
			5,00
	</text>
	<text font-size="10" font-family="Arial" x="390.26208, 397.48376, 403.04529, 405.82361, 411.38513, 416.94666, 419.72498, 425.2865, " y="275.52472, ">
			R$ 14,90
	</text>
	<text font-size="10" font-family="Arial" x="492.35809, 499.57977, 505.1413, 507.91962, 513.48114, 519.04266, 521.82098, 527.38251, " y="275.52472, ">
			R$ 74,50
	</text>
	<text font-size="10" font-family="Arial" x="51.048, 58.26968, 63.831203, 69.392731, 74.954254, 77.732574, 83.294098, 86.072418, 92.74234, 94.96402, 99.96402, 102.74234, 109.41226, 114.97379, 118.30386, 126.63394, 132.19547, 134.41714, 139.97867, " y="292.51672, ">
			Caneta Bic Vermelha
	</text>
	<text font-size="10" font-family="Arial" x="315.10358, 320.6651, 326.22662, 329.00494, 334.56647, " y="292.51672, ">
			12,00
	</text>
	<text font-size="10" font-family="Arial" x="395.82361, 403.04529, 408.60681, 411.38513, 416.94666, 419.72498, 425.2865, " y="292.51672, ">
			R$ 2,50
	</text>
	<text font-size="10" font-family="Arial" x="492.35809, 499.57977, 505.1413, 507.91962, 513.48114, 519.04266, 521.82098, 527.38251, " y="292.51672, ">
			R$ 30,00
	</text>
	<text font-size="10" font-family="Arial" x="51.048, 57.717922, 63.279446, 66.609528, 69.939606, 75.501129, 80.501129, 86.062653, 91.624176, 94.402496, 101.07242, 104.4025, 109.96402, 115.52554, 120.52554, " y="309.50873, ">
			Borracha Branca
	</text>
	<text font-size="10" font-family="Arial" x="315.10358, 320.6651, 326.22662, 329.00494, 334.56647, " y="309.50873, ">
			20,00
	</text>
	<text font-size="10" font-family="Arial" x="395.82361, 403.04529, 408.60681, 411.38513, 416.94666, 419.72498, 425.2865, " y="309.50873, ">
			R$ 1,30
	</text>
	<text font-size="10" font-family="Arial" x="492.35809, 499.57977, 505.1413, 507.91962, 513.48114, 519.04266, 521.82098, 527.38251, " y="309.50873, ">
			R$ 26,00
	</text>
	<path fill="none" stroke="black" stroke-width="0.21600001" stroke-miterlimit="4" d="M51.048 317.448L544.248 317.448"/>
	<text font-size="10" font-weight="600" font-family="Arial" x="389.21869, 395.88861, 401.99701, 408.10541, 411.43549, 417.54388, 420.87396, 426.43549, 429.21381, 431.99213, 439.21381, 443.10541, 449.21381, 455.3222, 461.4306, 464.20892, 471.4306, 477.539, 483.10052, 486.4306, 491.99213, 495.3222, 498.10052, 505.3222, 510.88373, 513.66205, 519.22357, 524.7851, 530.34662, 533.12494, 538.68646, " y="329.30875, ">
			Subtotal Bruno Costa: R$ 130,50
	</text>
	<text fill="#C2410C" font-size="11" font-weight="600" font-family="Arial" x="51.048, 58.991848, 62.048, 65.104156, 71.221832, 77.941071, 81.604156, 87.721832, 91.384918, 94.441071, 102.38492, 108.50259, 112.78336, 115.83951, 121.95718, 125.01334, 132.95718, 136.01334, 142.13101, " y="355.77402, ">
			Cliente: Carla Dias
	</text>
	<text font-size="10" font-family="Arial" x="51.048, 57.717922, 59.939602, 65.501129, 70.501129, 76.062653, 78.840973, 84.402496, 89.96402, 92.74234, 99.96402, 105.52554, 108.30386, 113.86539, 118.86539, 121.64371, 128.31363, " y="377.54874, ">
			Bloco de Notas A5
	</text>
	<text font-size="10" font-family="Arial" x="320.6651, 326.22662, 329.00494, 334.56647, " y="377.54874, ">
			3,00
	</text>
	<text font-size="10" font-family="Arial" x="390.26208, 397.48376, 403.04529, 405.82361, 411.38513, 416.94666, 419.72498, 425.2865, " y="377.54874, ">
			R$ 18,00
	</text>
	<text font-size="10" font-family="Arial" x="492.35809, 499.57977, 505.1413, 507.91962, 513.48114, 519.04266, 521.82098, 527.38251, " y="377.54874, ">
			R$ 54,00
	</text>
	<text font-size="10" font-family="Arial" x="51.048, 59.378078, 64.939606, 68.269684, 73.269684, 78.831207, 84.392731, 89.954254, 93.284332, 96.062653, 103.28433, " y="394.54074, ">
			Marcador CD
	</text>
	<text font-size="10" font-family="Arial" x="320.6651, 326.22662, 329.00494, 334.56647, " y="394.54074, ">
			6,00
	</text>
	<text font-size="10" font-family="Arial" x="395.82361, 403.04529, 408.60681, 411.38513, 416.94666, 419.72498, 425.2865, " y="394.54074, ">
			R$ 4,50
	</text>
	<text font-size="10" font-family="Arial" x="492.35809, 499.57977, 505.1413, 507.91962, 513.48114, 519.04266, 521.82098, 527.38251, " y="394.54074, ">
			R$ 27,00
	</text>
	<path fill="none" stroke="black" stroke-width="0.21600001" stroke-miterlimit="4" d="M51.048 402.48L544.248 402.48"/>
	<text font-size="10" font-weight="600" font-family="Arial" x="405.8642, 412.53412, 418.64252, 424.75092, 428.08099, 434.18939, 437.51947, 443.08099, 445.85931, 448.63763, 455.85931, 461.42084, 465.31244, 468.09076, 473.65228, 476.4306, 483.65228, 486.4306, 491.99213, 497.55365, 500.88373, 503.66205, 510.88373, 516.44525, 519.22357, 524.7851, 530.34662, 533.12494, 538.68646, " y="414.34073, ">
			Subtotal Carla Dias: R$ 81,00
	</text>
	<text fill="#C2410C" font-size="11" font-weight="600" font-family="Arial" x="51.048, 58.991848, 62.048, 65.104156, 71.221832, 77.941071, 81.604156, 87.721832, 91.384918, 94.441071, 102.38492, 105.44107, 111.55875, 118.27798, 124.99722, 128.05338, 134.77261, 137.82877, 147.60953, " y="440.806, ">
			Cliente: Diego Lima
	</text>
	<text font-size="10" font-family="Arial" x="51.048, 58.26968, 63.831203, 69.392731, 74.954254, 80.515778, 83.294098, 88.855621, 94.417145, 99.417145, " y="462.58075, ">
			Régua 30cm
	</text>
	<text font-size="10" font-family="Arial" x="320.6651, 326.22662, 329.00494, 334.56647, " y="462.58075, ">
			2,00
	</text>
	<text font-size="10" font-family="Arial" x="395.82361, 403.04529, 408.60681, 411.38513, 416.94666, 419.72498, 425.2865, " y="462.58075, ">
			R$ 8,20
	</text>
	<text font-size="10" font-family="Arial" x="492.35809, 499.57977, 505.1413, 507.91962, 513.48114, 519.04266, 521.82098, 527.38251, " y="462.58075, ">
			R$ 16,40
	</text>
	<text font-size="10" font-family="Arial" x="51.048, 57.717922, 63.279446, 68.840973, 74.402496, 77.180817, 82.74234, 88.303864, 93.865387, 97.195465, 99.973785, 104.97379, 107.75211, 113.31363, 118.87515, 124.43668, 129.9982, 134.9982, 137.21988, 139.9982, " y="479.57272, ">
			Apontador c/depósito
	</text>
	<text font-size="10" font-family="Arial" x="315.10358, 320.6651, 326.22662, 329.00494, 334.56647, " y="479.57272, ">
			10,00
	</text>
	<text font-size="10" font-family="Arial" x="395.82361, 403.04529, 408.60681, 411.38513, 416.94666, 419.72498, 425.2865, " y="479.57272, ">
			R$ 3,90
	</text>
	<text font-size="10" font-family="Arial" x="492.35809, 499.57977, 505.1413, 507.91962, 513.48114, 519.04266, 521.82098, 527.38251, " y="479.57272, ">
			R$ 39,00
	</text>
	<path fill="none" stroke="black" stroke-width="0.21600001" stroke-miterlimit="4" d="M51.048 487.512L544.248 487.512"/>
	<text font-size="10" font-weight="600" font-family="Arial" x="400.88373, 407.55365, 413.66205, 419.77045, 423.10052, 429.20892, 432.539, 438.10052, 440.87885, 443.65717, 450.87885, 453.65717, 459.21869, 465.32709, 471.43549, 474.21381, 480.3222, 483.10052, 491.99213, 497.55365, 500.88373, 503.66205, 510.88373, 516.44525, 519.22357, 524.7851, 530.34662, 533.12494, 538.68646, " y="499.37274, ">
			Subtotal Diego Lima: R$ 55,40
	</text>
	<text fill="#C2410C" font-size="11" font-weight="600" font-family="Arial" x="51.048, 58.991848, 62.048, 65.104156, 71.221832, 77.941071, 81.604156, 87.721832, 91.384918, 94.441071, 101.77798, 108.49722, 115.21646, 121.33414, 125.6149, 132.33414, 139.05338, 142.10953, 149.44644, 156.16568, 162.88492, 169.00259, " y="525.83801, ">
			Cliente: Eduardo Sousa
	</text>
	<text font-size="10" font-family="Arial" x="51.048, 58.26968, 63.831203, 66.052887, 71.052887, 76.61441, 79.392731, 86.61441, 88.83609, 91.05777, 96.619293, 101.61929, 104.39761, 109.95914, 115.52066, 121.08218, 126.64371, " y="547.61273, ">
			Caixa Clips 100un
	</text>
	<text font-size="10" font-family="Arial" x="320.6651, 326.22662, 329.00494, 334.56647, " y="547.61273, ">
			4,00
	</text>
	<text font-size="10" font-family="Arial" x="395.82361, 403.04529, 408.60681, 411.38513, 416.94666, 419.72498, 425.2865, " y="547.61273, ">
			R$ 6,70
	</text>
	<text font-size="10" font-family="Arial" x="492.35809, 499.57977, 505.1413, 507.91962, 513.48114, 519.04266, 521.82098, 527.38251, " y="547.61273, ">
			R$ 26,80
	</text>
	<path fill="none" stroke="black" stroke-width="0.21600001" stroke-miterlimit="4" d="M51.048 555.552L544.248 555.552"/>
	<text font-size="10" font-weight="600" font-family="Arial" x="381.43549, 388.10541, 394.21381, 400.3222, 403.65228, 409.76068, 413.09076, 418.65228, 421.4306, 424.20892, 430.87885, 436.98724, 443.09564, 448.65717, 452.54877, 458.65717, 464.76556, 467.54388, 474.21381, 480.3222, 486.4306, 491.99213, 497.55365, 500.88373, 503.66205, 510.88373, 516.44525, 519.22357, 524.7851, 530.34662, 533.12494, 538.68646, " y="567.41272, ">
			Subtotal Eduardo Sousa: R$ 26,80
	</text>
	<path fill="none" stroke="black" stroke-width="0.50400001" stroke-miterlimit="4" d="M51.048 578.232L544.248 578.232"/>
	<text font-size="11" font-weight="600" font-family="Arial" x="431.14349, 437.86273, 444.58197, 448.24506, 454.36273, 457.41888, 460.47504, 467.19427, 473.31195, 477.59271, 483.71039, 486.76654, 490.42963, 493.48578, 501.42963, 507.5473, 510.60345, 516.72113, 522.83881, 528.95648, 532.01263, 538.13031, " y="593.87799, ">
			Total geral: R$ 346,10
	</text>
	<text fill="gray" font-size="10" font-family="Arial" x="419.73627, 427.51459, 435.84467, 441.40619, 443.62787, 450.84955, 456.41107, 461.9726, 467.53412, 470.8642, 473.64252, 476.42084, 479.75092, 482.52924, 489.19916, 494.76068, 500.3222, 502.54388, 508.10541, 513.66693, 516.44525, 522.00677, 524.7851, 530.34662, 535.90814, 538.68646, " y="780.02875, ">
			OmniReport · Página 1 de 1
	</text>
</svg>
