<?xml version="1.0" encoding="UTF-8"?>
<svg xmlns="http://www.w3.org/2000/svg" xmlns:xlink="http://www.w3.org/1999/xlink" viewBox="0 0 595.296 841.896" width="100%" height="100%" preserveAspectRatio="xMidYMid meet">
	<rect fill="white" width="595.29602" height="841.896"/>
	<text font-size="15" font-weight="600" font-family="Arial" x="220.12848, 230.961, 235.12848, 243.47076, 248.46588, 254.30328, 258.47076, 267.63336, 276.79596, 280.96344, 289.30573, 297.64801, 306.81061, 310.97809, 320.14069, 328.48297, 332.65045, 341.81305, 345.98053, 350.14801, 354.31549, 362.65778, 366.82526, " y="64.627106, ">
			Distribuição de Filiais
	</text>
	<text fill="gray" font-size="10" font-family="Arial" x="142.15973, 150.48981, 156.05133, 161.61285, 164.39117, 174.39117, 177.16949, 182.73102, 186.0611, 191.62262, 193.8443, 199.40582, 204.40582, 209.96735, 215.52887, 218.30719, 227.74567, 233.30719, 238.86871, 241.64703, 249.97711, 255.53864, 258.86871, 263.86871, 269.43024, 272.20856, 277.77008, 281.10016, 283.87848, 286.6568, 291.6568, 297.21832, 302.77985, 305.55817, 311.11969, 314.44977, 320.01129, 325.57281, 328.35114, 333.91266, 339.47418, 342.2525, 348.92242, 352.2525, 357.81403, 362.81403, 365.03571, 367.25739, 370.03571, 373.36578, 378.36578, 383.92731, 389.48883, 395.05035, 400.61188, 403.94196, 406.72028, 412.56012, 415.33844, 420.89996, 424.23004, 429.79156, 432.56989, 434.79156, 439.79156, 445.35309, 447.57477, " y="91.276733, ">
			Map — projeção Web Mercator, contorno do Brasil (shape) + graticule
	</text>
	<rect fill="#EFF6FF" x="51.048" y="102.096" width="493.19998" height="283.46399"/>
	<rect fill="none" stroke="#93C5FD" stroke-width="0.72000003" stroke-miterlimit="4" x="51.048" y="102.096" width="493.19998" height="283.46399"/>
	<path fill="none" stroke="#C7D2DD" stroke-width="0.43200001" stroke-miterlimit="4" d="M65.304 110.592L65.304 377.064"/>
	<text fill="#7C8896" font-size="6" font-family="Arial" x="67.031998, 70.368912, 73.705826, 76.10524, " y="373.42365, ">
			90°O
	</text>
	<path fill="none" stroke="#C7D2DD" stroke-width="0.43200001" stroke-miterlimit="4" d="M130.608 110.592L130.608 377.064"/>
	<text fill="#7C8896" font-size="6" font-family="Arial" x="132.26401, 135.60092, 138.93784, 141.33725, " y="373.42365, ">
			80°O
	</text>
	<path fill="none" stroke="#C7D2DD" stroke-width="0.43200001" stroke-miterlimit="4" d="M195.84 110.592L195.84 377.064"/>
	<text fill="#7C8896" font-size="6" font-family="Arial" x="197.496, 200.83292, 204.16983, 206.56924, " y="373.42365, ">
			70°O
	</text>
	<path fill="none" stroke="#C7D2DD" stroke-width="0.43200001" stroke-miterlimit="4" d="M261.072 110.592L261.072 377.064"/>
	<text fill="#7C8896" font-size="6" font-family="Arial" x="262.79999, 266.1369, 269.47382, 271.87323, " y="373.42365, ">
			60°O
	</text>
	<path fill="none" stroke="#C7D2DD" stroke-width="0.43200001" stroke-miterlimit="4" d="M326.304 110.592L326.304 377.064"/>
	<text fill="#7C8896" font-size="6" font-family="Arial" x="328.03201, 331.36893, 334.70584, 337.10526, " y="373.42365, ">
			50°O
	</text>
	<path fill="none" stroke="#C7D2DD" stroke-width="0.43200001" stroke-miterlimit="4" d="M391.608 110.592L391.608 377.064"/>
	<text fill="#7C8896" font-size="6" font-family="Arial" x="393.26401, 396.60092, 399.93784, 402.33725, " y="373.42365, ">
			40°O
	</text>
	<path fill="none" stroke="#C7D2DD" stroke-width="0.43200001" stroke-miterlimit="4" d="M456.84 110.592L456.84 377.064"/>
	<text fill="#7C8896" font-size="6" font-family="Arial" x="458.496, 461.83292, 465.16983, 467.56924, " y="373.42365, ">
			30°O
	</text>
	<path fill="none" stroke="#C7D2DD" stroke-width="0.43200001" stroke-miterlimit="4" d="M522.072 110.592L522.072 377.064"/>
	<text fill="#7C8896" font-size="6" font-family="Arial" x="523.79999, 527.1369, 530.47382, 532.87323, " y="373.42365, ">
			20°O
	</text>
	<path fill="none" stroke="#C7D2DD" stroke-width="0.43200001" stroke-miterlimit="4" d="M59.544 348.624L535.752 348.624"/>
	<text fill="#7C8896" font-size="6" font-family="Arial" x="61.271999, 64.608917, 67.945831, 70.345245, " y="352.32764, ">
			30°S
	</text>
	<path fill="none" stroke="#C7D2DD" stroke-width="0.43200001" stroke-miterlimit="4" d="M59.544 311.832L535.752 311.832"/>
	<text fill="#7C8896" font-size="6" font-family="Arial" x="61.271999, 64.608917, 67.945831, 70.345245, " y="315.53564, ">
			25°S
	</text>
	<path fill="none" stroke="#C7D2DD" stroke-width="0.43200001" stroke-miterlimit="4" d="M59.544 276.48L535.752 276.48"/>
	<text fill="#7C8896" font-size="6" font-family="Arial" x="61.271999, 64.608917, 67.945831, 70.345245, " y="280.25565, ">
			20°S
	</text>
	<path fill="none" stroke="#C7D2DD" stroke-width="0.43200001" stroke-miterlimit="4" d="M59.544 242.28L535.752 242.28"/>
	<text fill="#7C8896" font-size="6" font-family="Arial" x="61.271999, 64.608917, 67.945831, 70.345245, " y="245.98364, ">
			15°S
	</text>
	<path fill="none" stroke="#C7D2DD" stroke-width="0.43200001" stroke-miterlimit="4" d="M59.544 208.872L535.752 208.872"/>
	<text fill="#7C8896" font-size="6" font-family="Arial" x="61.271999, 64.608917, 67.945831, 70.345245, " y="212.57564, ">
			10°S
	</text>
	<path fill="none" stroke="#C7D2DD" stroke-width="0.43200001" stroke-miterlimit="4" d="M59.544 175.968L535.752 175.968"/>
	<text fill="#7C8896" font-size="6" font-family="Arial" x="61.271999, 64.608917, 67.008331, " y="179.67165, ">
			5°S
	</text>
	<path fill="none" stroke="#C7D2DD" stroke-width="0.43200001" stroke-miterlimit="4" d="M59.544 143.28L535.752 143.28"/>
	<text fill="#7C8896" font-size="6" font-family="Arial" x="61.271999, 64.608917, " y="146.98364, ">
			0°
	</text>
	<path fill="#E8EDE4" d="M256.536 110.592L318.528 116.496L326.304 143.28L336.096 153.072L363.528 159.552L379.8 162.216L401.328 167.4L422.928 181.152L425.52 190.368L424.224 206.856L411.12 215.496L401.328 228.816L398.088 262.008L389.592 278.568L370.728 297.576L349.848 304.632L336.096 315.432L335.448 337.392L326.304 348.624L311.976 363.816L304.128 377.064L276.768 350.136L287.208 329.256L296.28 316.152L274.752 291.168L272.808 275.112L261.072 242.28L226.512 215.496L195.84 215.496L169.776 192.312L195.84 170.712L213.408 135.432L235.008 126.936L256.536 110.592Z"/>
	<path fill="none" stroke="#9CA3AF" stroke-width="0.43200001" stroke-miterlimit="4" d="M256.536 110.592L318.528 116.496L326.304 143.28L336.096 153.072L363.528 159.552L379.8 162.216L401.328 167.4L422.928 181.152L425.52 190.368L424.224 206.856L411.12 215.496L401.328 228.816L398.088 262.008L389.592 278.568L370.728 297.576L349.848 304.632L336.096 315.432L335.448 337.392L326.304 348.624L311.976 363.816L304.128 377.064L276.768 350.136L287.208 329.256L296.28 316.152L274.752 291.168L272.808 275.112L261.072 242.28L226.512 215.496L195.84 215.496L169.776 192.312L195.84 170.712L213.408 135.432L235.008 126.936L256.536 110.592Z"/>
	<ellipse fill="#1D4ED8" cx="348.37201" cy="301.5" rx="3.1320038" ry="3.1320038"/>
	<ellipse fill="none" stroke="white" stroke-width="0.50400001" stroke-miterlimit="4" cx="348.37201" cy="301.5" rx="3.1320038" ry="3.1320038"/>
	<ellipse fill="#1D4ED8" cx="370.76398" cy="296.96399" rx="3.1320038" ry="3.1320038"/>
	<ellipse fill="none" stroke="white" stroke-width="0.50400001" stroke-miterlimit="4" cx="370.76398" cy="296.96399" rx="3.1320038" ry="3.1320038"/>
	<ellipse fill="#1D4ED8" cx="365.86798" cy="276.01202" rx="3.1320038" ry="3.1320038"/>
	<ellipse fill="none" stroke="white" stroke-width="0.50400001" stroke-miterlimit="4" cx="365.86798" cy="276.01202" rx="3.1320038" ry="3.1320038"/>
	<ellipse fill="#1D4ED8" cx="331.09198" cy="314.96399" rx="3.1320038" ry="3.1320038"/>
	<ellipse fill="none" stroke="white" stroke-width="0.50400001" stroke-miterlimit="4" cx="331.09198" cy="314.96399" rx="3.1320038" ry="3.1320038"/>
	<ellipse fill="#1D4ED8" cx="318.34802" cy="348.87598" rx="3.1320038" ry="3.1320038"/>
	<ellipse fill="none" stroke="white" stroke-width="0.50400001" stroke-miterlimit="4" cx="318.34802" cy="348.87598" rx="3.1320038" ry="3.1320038"/>
	<ellipse fill="#1D4ED8" cx="401.36401" cy="228.636" rx="3.1320038" ry="3.1320038"/>
	<ellipse fill="none" stroke="white" stroke-width="0.50400001" stroke-miterlimit="4" cx="401.36401" cy="228.636" rx="3.1320038" ry="3.1320038"/>
	<ellipse fill="#1D4ED8" cx="425.052" cy="196.02" rx="3.1320038" ry="3.1320038"/>
	<ellipse fill="none" stroke="white" stroke-width="0.50400001" stroke-miterlimit="4" cx="425.052" cy="196.02" rx="3.1320038" ry="3.1320038"/>
	<ellipse fill="#1D4ED8" cx="340.164" cy="247.644" rx="3.1320038" ry="3.1320038"/>
	<ellipse fill="none" stroke="white" stroke-width="0.50400001" stroke-miterlimit="4" cx="340.164" cy="247.644" rx="3.1320038" ry="3.1320038"/>
	<ellipse fill="#1D4ED8" cx="401.29199" cy="167.65201" rx="3.1320038" ry="3.1319962"/>
	<ellipse fill="none" stroke="white" stroke-width="0.50400001" stroke-miterlimit="4" cx="401.29199" cy="167.65201" rx="3.1320038" ry="3.1319962"/>
	<ellipse fill="#1D4ED8" cx="260.96399" cy="163.548" rx="3.1320038" ry="3.1319962"/>
	<ellipse fill="none" stroke="white" stroke-width="0.50400001" stroke-miterlimit="4" cx="260.96399" cy="163.548" rx="3.1320038" ry="3.1319962"/>
	<text font-size="10" font-weight="600" font-family="Arial" x="51.048, 57.156399, 59.934719, 62.713039, 65.491364, 71.052887, " y="400.22873, ">
			Filial
	</text>
	<text font-size="10" font-weight="600" font-family="Arial" x="311.832, 319.05368, " y="400.22873, ">
			UF
	</text>
	<text font-size="10" font-weight="600" font-family="Arial" x="483.68646, 489.79486, 495.35638, 498.68646, 504.79486, 508.68646, 514.24799, 523.13959, 528.70111, 534.80951, 538.13959, " y="400.22873, ">
			Faturamento
	</text>
	<path fill="none" stroke="black" stroke-width="0.21600001" stroke-miterlimit="4" d="M51.048 408.168L544.248 408.168"/>
	<text font-size="10" font-family="Arial" x="51.048, 57.717922, 63.279446, 68.840973, 71.619293, 78.289215, 83.850739, 89.412262, 91.633942, " y="420.10074, ">
			São Paulo
	</text>
	<text font-size="10" font-family="Arial" x="311.832, 318.50192, " y="420.10074, ">
			SP
	</text>
	<text font-size="10" font-family="Arial" x="478.63763, 485.85931, 491.42084, 494.19916, 499.76068, 505.3222, 510.88373, 513.66205, 519.22357, 524.7851, 530.34662, 533.12494, 538.68646, " y="420.10074, ">
			R$ 128.500,00
	</text>
	<text font-size="10" font-family="Arial" x="51.048, 58.26968, 60.49136, 66.052887, 68.831207, 74.392731, 79.954254, 82.732574, 87.732574, 93.294098, 98.855621, 104.41714, 106.63882, 109.9689, " y="437.09274, ">
			Rio de Janeiro
	</text>
	<text font-size="10" font-family="Arial" x="311.832, 319.05368, " y="437.09274, ">
			RJ
	</text>
	<text font-size="10" font-family="Arial" x="484.19916, 491.42084, 496.98236, 499.76068, 505.3222, 510.88373, 513.66205, 519.22357, 524.7851, 530.34662, 533.12494, 538.68646, " y="437.09274, ">
			R$ 98.700,00
	</text>
	<text font-size="10" font-family="Arial" x="51.048, 57.717922, 63.279446, 65.501129, 71.062653, 73.840973, 81.062653, 86.624176, 89.954254, 92.175934, 97.175934, 102.73746, 108.29898, 111.0773, " y="454.08475, ">
			Belo Horizonte
	</text>
	<text font-size="10" font-family="Arial" x="311.832, 320.16208, " y="454.08475, ">
			MG
	</text>
	<text font-size="10" font-family="Arial" x="484.19916, 491.42084, 496.98236, 499.76068, 505.3222, 510.88373, 513.66205, 519.22357, 524.7851, 530.34662, 533.12494, 538.68646, " y="454.08475, ">
			R$ 61.200,00
	</text>
	<text font-size="10" font-family="Arial" x="51.048, 58.26968, 63.831203, 67.161285, 69.382965, 72.161285, 74.382965, 79.944489, " y="471.07672, ">
			Curitiba
	</text>
	<text font-size="10" font-family="Arial" x="311.832, 318.50192, " y="471.07672, ">
			PR
	</text>
	<text font-size="10" font-family="Arial" x="484.19916, 491.42084, 496.98236, 499.76068, 505.3222, 510.88373, 513.66205, 519.22357, 524.7851, 530.34662, 533.12494, 538.68646, " y="471.07672, ">
			R$ 54.800,00
	</text>
	<text font-size="10" font-family="Arial" x="51.048, 57.717922, 63.279446, 66.609528, 69.387848, 74.949371, 77.727692, 84.397614, 86.619293, 92.180817, 97.74234, 101.07242, " y="488.06873, ">
			Porto Alegre
	</text>
	<text font-size="10" font-family="Arial" x="311.832, 319.05368, " y="488.06873, ">
			RS
	</text>
	<text font-size="10" font-family="Arial" x="484.19916, 491.42084, 496.98236, 499.76068, 505.3222, 510.88373, 513.66205, 519.22357, 524.7851, 530.34662, 533.12494, 538.68646, " y="488.06873, ">
			R$ 47.300,00
	</text>
	<text font-size="10" font-family="Arial" x="51.048, 57.717922, 63.279446, 65.501129, 70.501129, 76.062653, 81.624176, 87.185699, " y="505.06073, ">
			Salvador
	</text>
	<text font-size="10" font-family="Arial" x="311.832, 318.50192, " y="505.06073, ">
			BA
	</text>
	<text font-size="10" font-family="Arial" x="484.19916, 491.42084, 496.98236, 499.76068, 505.3222, 510.88373, 513.66205, 519.22357, 524.7851, 530.34662, 533.12494, 538.68646, " y="505.06073, ">
			R$ 52.900,00
	</text>
	<text font-size="10" font-family="Arial" x="51.048, 58.26968, 63.831203, 68.831207, 71.052887, 73.831207, " y="522.05273, ">
			Recife
	</text>
	<text font-size="10" font-family="Arial" x="311.832, 318.50192, " y="522.05273, ">
			PE
	</text>
	<text font-size="10" font-family="Arial" x="484.19916, 491.42084, 496.98236, 499.76068, 505.3222, 510.88373, 513.66205, 519.22357, 524.7851, 530.34662, 533.12494, 538.68646, " y="522.05273, ">
			R$ 44.100,00
	</text>
	<text font-size="10" font-family="Arial" x="51.048, 57.717922, 61.048, 66.609528, 71.609528, 74.387848, 76.609528, 78.831207, " y="539.04474, ">
			Brasília
	</text>
	<text font-size="10" font-family="Arial" x="311.832, 319.05368, " y="539.04474, ">
			DF
	</text>
	<text font-size="10" font-family="Arial" x="484.19916, 491.42084, 496.98236, 499.76068, 505.3222, 510.88373, 513.66205, 519.22357, 524.7851, 530.34662, 533.12494, 538.68646, " y="539.04474, ">
			R$ 73.600,00
	</text>
	<text font-size="10" font-family="Arial" x="51.048, 57.156399, 62.717922, 66.048004, 68.826324, 74.387848, 76.609528, 82.171051, 87.171051, " y="556.03674, ">
			Fortaleza
	</text>
	<text font-size="10" font-family="Arial" x="311.832, 319.05368, " y="556.03674, ">
			CE
	</text>
	<text font-size="10" font-family="Arial" x="484.19916, 491.42084, 496.98236, 499.76068, 505.3222, 510.88373, 513.66205, 519.22357, 524.7851, 530.34662, 533.12494, 538.68646, " y="556.03674, ">
			R$ 39.800,00
	</text>
	<text font-size="10" font-family="Arial" x="51.048, 59.378078, 64.939606, 70.501129, 76.062653, 81.624176, " y="573.02875, ">
			Manaus
	</text>
	<text font-size="10" font-family="Arial" x="311.832, 318.50192, " y="573.02875, ">
			AM
	</text>
	<text font-size="10" font-family="Arial" x="484.19916, 491.42084, 496.98236, 499.76068, 505.3222, 510.88373, 513.66205, 519.22357, 524.7851, 530.34662, 533.12494, 538.68646, " y="573.02875, ">
			R$ 28.500,00
	</text>
	<path fill="none" stroke="black" stroke-width="0.50400001" stroke-miterlimit="4" d="M51.048 580.968L544.248 580.968"/>
	<text font-size="11" font-weight="600" font-family="Arial" x="372.46429, 379.18353, 385.30121, 388.96429, 395.68353, 399.96429, 406.08197, 415.86273, 421.98041, 428.69965, 432.36273, 439.08197, 442.13812, 445.80121, 452.52045, 456.18353, 462.30121, 465.35736, 469.02045, 472.0766, 480.02045, 486.13812, 489.19427, 495.31195, 501.42963, 507.5473, 510.60345, 516.72113, 522.83881, 528.95648, 532.01263, 538.13031, " y="596.61401, ">
			Faturamento total: R$ 629.400,00
	</text>
</svg>
